<svg width="72" height="73" viewBox="0 0 72 73" fill="none" xmlns="http://www.w3.org/2000/svg">
<g filter="url(#filter0_d_141_259)">
<path d="M21.0158 21.8376V16.8752H8.09082V21.8376H11.0561V32.4524H8.09082V37.4147H21.0158V32.4524H18.0505V21.8376H21.0158Z" fill="white"/>
<path d="M35.2793 24.7563C34.4804 24.5234 30.3699 23.3445 29.6582 23.1116C28.9464 22.8787 28.3654 22.5439 28.3654 22.1218C28.3654 21.6997 29.0191 21.2485 30.3408 21.2485C34.5095 21.2485 36.5121 23.8248 36.5121 23.8248C36.5121 23.8248 36.7377 24.126 36.8134 24.2341H40.8353V17.2053H36.5176V18.4841C36.1879 18.2559 33.7533 16.6637 29.9777 16.6637C24.9956 16.6637 22.2214 19.2545 22.2214 23.1261C22.2214 26.9978 25.7219 28.5989 26.6951 29.0064C27.6682 29.414 31.4738 30.491 33.1006 31.0005C34.7274 31.5099 35.3229 31.8738 35.3229 32.1358C35.3229 32.3978 34.6112 33.0819 32.5777 33.0819C29.0356 33.0819 27.2115 30.9887 26.8913 30.5834V30.5802C26.7895 30.4435 26.6701 30.2818 26.6295 30.2209C26.5826 30.1505 26.4737 29.9941 26.3982 29.886H22.3763V37.3919H26.8913V35.8245C27.4167 36.1749 30.1059 37.8559 33.333 37.8559C36.9352 37.8559 41.525 36.284 41.525 31.3789C41.525 26.4738 36.0782 24.9892 35.2793 24.7563Z" fill="white"/>
<path d="M52.9893 16.5946C46.9843 16.5946 42.0593 19.6032 42.0593 27.2833C42.0593 34.9634 47.4058 37.8401 53.0155 37.8401C58.6253 37.8401 63.9191 34.9897 63.9191 27.3626C63.9191 19.7355 58.6255 16.5946 52.9893 16.5946ZM53.042 32.7201C50.9876 32.7201 49.6707 32.245 49.6707 27.257C49.6707 22.2689 50.6453 21.7411 53.1209 21.7411C54.6221 21.7411 56.4395 21.8466 56.4395 27.0986C56.4395 32.3507 55.0964 32.7201 53.042 32.7201Z" fill="white"/>
<path d="M16.7031 14.6101C18.053 12.6127 19.713 10.8421 21.616 9.37166C22.3855 9.94176 23.2034 10.4589 24.0633 10.9197C22.6226 12.529 21.3319 14.3118 21.1181 14.6101H21.9825C22.5013 13.9094 23.5745 12.4997 24.7062 11.25C25.9431 11.8593 27.2577 12.3577 28.6293 12.7373C28.2642 13.5135 27.9883 14.1922 27.8263 14.6101H28.5773C28.7498 14.1797 29.0027 13.5795 29.3182 12.9162C31.0679 13.3446 32.9013 13.5847 34.7769 13.6213V14.6102H35.4741V13.6247C37.3359 13.611 39.1592 13.3984 40.9028 12.9989C41.2 13.629 41.4393 14.1978 41.6046 14.6101H42.3556C42.1999 14.2087 41.9394 13.5671 41.5953 12.829C42.9915 12.465 44.3311 11.9797 45.5928 11.3799C46.6812 12.5965 47.6986 13.9337 48.1995 14.6101H49.0638C48.8566 14.321 47.6327 12.6299 46.2419 11.0581C47.1981 10.5629 48.1047 9.9994 48.9522 9.37166C50.8552 10.8421 52.5153 12.6127 53.8651 14.6101H54.7037C50.58 8.23252 43.4158 4.00385 35.284 4.00385C27.1521 4.00385 19.9879 8.23252 15.8642 14.6101H16.7031ZM28.9404 12.0984C27.6357 11.7452 26.3839 11.2822 25.2038 10.7159C25.3641 10.5489 25.5244 10.3871 25.6827 10.234C27.2987 8.67243 29.9567 6.95772 30.5393 6.5886C31.0121 6.84885 31.528 7.06892 32.0768 7.24358C31.6506 7.80367 30.8138 8.9406 29.9024 10.3827C29.5476 10.944 29.2245 11.5339 28.9404 12.0984ZM34.7769 12.9224C33.0111 12.887 31.2846 12.6667 29.6343 12.2745C29.8924 11.769 30.1804 11.2487 30.4914 10.7566C31.5414 9.09535 32.4887 7.84803 32.8043 7.44223C33.4339 7.59046 34.0957 7.6842 34.7769 7.71482V12.9224ZM35.4741 12.9259V7.72274C36.146 7.71133 36.8035 7.64007 37.4327 7.51326C37.7934 7.98077 38.696 9.18291 39.6906 10.7566C40.0178 11.2744 40.3196 11.8233 40.5879 12.3537C38.9434 12.7182 37.2269 12.9129 35.4741 12.9259ZM41.2868 12.1883C40.992 11.5967 40.6531 10.9738 40.2795 10.3827C39.4152 9.015 38.6176 7.92162 38.1741 7.33452C38.7577 7.17023 39.3088 6.95667 39.8147 6.69829C40.6326 7.22367 43.0082 8.7933 44.4992 10.234C44.6971 10.4253 44.8976 10.6297 45.0979 10.8416C43.8932 11.399 42.6161 11.8502 41.2868 12.1883ZM48.3684 8.93489C47.5504 9.52653 46.6765 10.0566 45.7563 10.5226C45.4992 10.2461 45.2398 9.97913 44.9831 9.73111C43.5886 8.38354 41.5122 6.96983 40.4949 6.306C40.8405 6.0815 41.1566 5.83325 41.4383 5.56299C43.9565 6.28399 46.2943 7.43688 48.3684 8.93489ZM35.2842 4.70249C37.1253 4.70249 38.9146 4.92757 40.628 5.34886C39.3277 6.40719 37.3794 7.02805 35.2842 7.02805C33.1795 7.02805 31.2365 6.40917 29.938 5.34944C31.6519 4.92781 33.4421 4.70249 35.2842 4.70249ZM29.1297 5.56299C29.3591 5.7833 29.6102 5.9894 29.8822 6.17943C28.9605 6.77374 26.6903 8.28992 25.1989 9.731C24.9841 9.9385 24.7677 10.1595 24.552 10.388C23.7271 9.95515 22.9404 9.4704 22.2001 8.93489C24.2738 7.43688 26.6115 6.28411 29.1297 5.56299Z" fill="white"/>
<path d="M53.8662 39.7419C52.5451 41.6973 50.9264 43.4351 49.0738 44.8869C48.1915 44.222 47.2445 43.6277 46.243 43.1086C47.4495 41.7448 48.5305 40.2914 48.9307 39.7421H48.0624C47.5272 40.4582 46.5903 41.673 45.5938 42.787C44.3321 42.187 42.9925 41.7013 41.5961 41.3374C41.8914 40.7039 42.1246 40.1424 42.2834 39.7421H41.5302C41.3705 40.1324 41.1582 40.6276 40.9031 41.1682C39.1606 40.7693 37.3376 40.5568 35.4742 40.5433V39.7421H34.777V40.5464C32.8999 40.5829 31.0666 40.8227 29.3179 41.2505C29.0455 40.678 28.8198 40.152 28.6521 39.7421H27.8988C28.0651 40.1617 28.3133 40.7583 28.6289 41.4293C27.2569 41.809 25.9419 42.3067 24.705 42.9164C23.6657 41.7684 22.6761 40.486 22.1198 39.7419H21.2516C21.665 40.3096 22.8069 41.8445 24.0633 43.2476C23.1584 43.7332 22.2992 44.2803 21.4946 44.8868C19.6419 43.435 18.0232 41.6972 16.7021 39.7418H15.8648C19.9886 46.1194 27.1525 50.3481 35.2843 50.3481C43.416 50.3481 50.58 46.1195 54.7038 39.7418L53.8662 39.7419ZM41.2872 41.9785C42.617 42.3164 43.894 42.7675 45.0989 43.3252C44.8982 43.5373 44.6975 43.742 44.4993 43.9337C43.013 45.3698 40.6449 46.9358 39.8209 47.4654C39.3149 47.2059 38.7632 46.9924 38.1777 46.8281C38.622 46.2399 39.4175 45.1486 40.2795 43.7848C40.6533 43.1936 40.9923 42.5703 41.2872 41.9785ZM35.4741 41.2418C37.2283 41.2549 38.9448 41.449 40.5882 41.813C40.3198 42.3437 40.018 42.8927 39.6905 43.411C38.6973 44.9825 37.7961 46.1833 37.4343 46.6522C36.8069 46.527 36.1494 46.4563 35.4739 46.4451L35.4741 41.2418ZM34.7769 41.2453V46.4523C34.0931 46.4827 33.4307 46.5753 32.8018 46.7225C32.484 46.3136 31.5398 45.0698 30.4914 43.411C30.1801 42.9186 29.8919 42.398 29.6338 41.8919C31.2831 41.5002 33.0096 41.2806 34.7769 41.2453ZM28.94 42.0687C29.2243 42.6335 29.5476 43.2234 29.9024 43.7849C30.8131 45.2258 31.6494 46.3621 32.0759 46.9226C31.5263 47.0972 31.0109 47.3175 30.5384 47.5784C29.9535 47.2077 27.2979 45.4942 25.6828 43.9337C25.5242 43.7805 25.364 43.6185 25.2034 43.4514C26.3833 42.8848 27.635 42.4217 28.94 42.0687ZM22.0738 45.3248C22.8508 44.7524 23.6793 44.2363 24.551 43.7788C24.7669 44.0075 24.9838 44.2289 25.1988 44.4366C26.6898 45.8773 28.9593 47.3932 29.8814 47.9877C29.5529 48.2181 29.2534 48.4715 28.9873 48.7466C26.4725 48.0081 24.1398 46.839 22.0738 45.3248ZM35.2842 49.6496C33.3828 49.6496 31.5362 49.4103 29.772 48.9619C31.0602 47.8275 33.1058 47.1397 35.2842 47.1397C37.4599 47.1397 39.5075 47.8279 40.7958 48.962C39.0317 49.4104 37.1853 49.6496 35.2842 49.6496ZM41.5806 48.7466C41.2643 48.4199 40.9028 48.1221 40.4995 47.8586C41.5185 47.1936 43.5907 45.7821 44.9831 44.4365C45.2399 44.1884 45.4993 43.9212 45.7567 43.6446C46.7238 44.1348 47.6404 44.6956 48.4944 45.3247C46.4283 46.8391 44.0955 48.0082 41.5806 48.7466Z" fill="white"/>
<path d="M9.42061 57.7578C9.45163 58.3358 9.67416 58.7353 10.0884 58.9563C10.3013 59.0728 10.5412 59.1309 10.8084 59.1309C11.3077 59.1309 11.7334 58.9225 12.0858 58.5055C12.438 58.0885 12.6877 57.2419 12.8348 55.9658C12.6025 56.3342 12.3151 56.5932 11.9726 56.7424C11.63 56.8918 11.2613 56.9665 10.8665 56.9665C10.0652 56.9665 9.4313 56.7166 8.96487 56.2168C8.49833 55.7169 8.26524 55.0737 8.26524 54.2871C8.26524 53.5316 8.49554 52.8669 8.95616 52.2935C9.41677 51.72 10.0962 51.4332 10.9942 51.4332C12.2057 51.4332 13.0419 51.9798 13.5025 53.0729C13.758 53.6738 13.8857 54.4257 13.8857 55.329C13.8857 56.3484 13.7328 57.2515 13.4271 58.0386C12.9198 59.3488 12.0605 60.0038 10.849 60.0038C10.0361 60.0038 9.41863 59.7904 8.99683 59.3638C8.57491 58.9371 8.36389 58.4018 8.36389 57.7579L9.42061 57.7578ZM12.141 55.6377C12.4835 55.3646 12.6548 54.8873 12.6548 54.2057C12.6548 53.5938 12.5009 53.1378 12.1931 52.8376C11.8854 52.5375 11.4935 52.3874 11.0174 52.3874C10.5065 52.3874 10.101 52.5588 9.80093 52.9015C9.5009 53.2442 9.35089 53.7023 9.35089 54.2754C9.35089 54.8176 9.48243 55.2485 9.74573 55.568C10.0089 55.8875 10.4289 56.0472 11.0057 56.0472C11.4199 56.0472 11.7984 55.9107 12.141 55.6377Z" fill="white"/>
<path d="M20.0056 52.7773C20.3772 53.4638 20.563 54.4045 20.563 55.5992C20.563 56.7319 20.3946 57.6685 20.0579 58.4095C19.5702 59.4723 18.7726 60.0037 17.6657 60.0037C16.6669 60.0037 15.9237 59.5694 15.436 58.7004C15.0296 57.9751 14.8263 57.0014 14.8263 55.7796C14.8263 54.8332 14.9483 54.0205 15.1921 53.3416C15.6488 52.0771 16.4753 51.4448 17.6714 51.4448C18.7475 51.4448 19.5256 51.8891 20.0056 52.7773ZM18.9539 58.3279C19.2756 57.847 19.4365 56.951 19.4365 55.6399C19.4365 54.6934 19.3201 53.9147 19.0876 53.3038C18.855 52.6929 18.4032 52.3874 17.7325 52.3874C17.1159 52.3874 16.6652 52.6774 16.3803 53.2574C16.0952 53.8372 15.9528 54.6915 15.9528 55.8203C15.9528 56.6698 16.0439 57.3526 16.2261 57.8684C16.5052 58.6559 16.9822 59.0496 17.6567 59.0496C18.1996 59.0495 18.6319 58.8089 18.9539 58.3279Z" fill="white"/>
<path d="M26.619 52.7773C26.9906 53.4638 27.1764 54.4045 27.1764 55.5992C27.1764 56.7319 27.008 57.6685 26.6712 58.4095C26.1836 59.4723 25.386 60.0037 24.279 60.0037C23.2803 60.0037 22.5371 59.5694 22.0494 58.7004C21.6429 57.9751 21.4397 57.0014 21.4397 55.7796C21.4397 54.8332 21.5617 54.0205 21.8055 53.3416C22.2622 52.0771 23.0887 51.4448 24.2847 51.4448C25.361 51.4448 26.1389 51.8891 26.619 52.7773ZM25.5672 58.3279C25.889 57.847 26.0499 56.951 26.0499 55.6399C26.0499 54.6934 25.9335 53.9147 25.701 53.3038C25.4683 52.6929 25.0166 52.3874 24.3459 52.3874C23.7293 52.3874 23.2786 52.6774 22.9936 53.2574C22.7086 53.8372 22.5661 54.6915 22.5661 55.8203C22.5661 56.6698 22.6572 57.3526 22.8394 57.8684C23.1186 58.6559 23.5956 59.0496 24.2701 59.0496C24.813 59.0495 25.2452 58.8089 25.5672 58.3279Z" fill="white"/>
<path d="M28.8195 53.8769V53.074C29.5744 53.0003 30.1008 52.8772 30.3988 52.7045C30.6969 52.5319 30.9194 52.1237 31.0666 51.4797H31.891V59.7767H30.7762V53.8768L28.8195 53.8769Z" fill="white"/>
<path d="M35.613 53.6267H36.8266V54.8951H35.613V53.6267ZM35.613 58.5083H36.8266V59.7768H35.613V58.5083Z" fill="white"/>
<path d="M38.4145 57.9032C38.6719 57.3719 39.1741 56.8889 39.9212 56.4545L41.0361 55.8087C41.5355 55.5177 41.8857 55.2692 42.0871 55.0634C42.4043 54.7407 42.5632 54.3716 42.5632 53.9557C42.5632 53.4699 42.418 53.0841 42.1278 52.7985C41.8374 52.5128 41.4503 52.37 40.9665 52.37C40.2503 52.37 39.7548 52.6424 39.48 53.187C39.3329 53.4788 39.2516 53.8834 39.2361 54.4007H38.1736C38.1852 53.6754 38.3187 53.0838 38.5741 52.6261C39.027 51.8193 39.8263 51.4159 40.9722 51.4159C41.9244 51.4159 42.6202 51.6739 43.0596 52.1897C43.4988 52.7057 43.7186 53.2797 43.7186 53.912C43.7186 54.5791 43.4844 55.1494 43.0161 55.6225C42.745 55.898 42.2592 56.2315 41.5586 56.6233L40.7631 57.0656C40.3837 57.275 40.0858 57.4749 39.8691 57.6648C39.4819 58.0022 39.238 58.3766 39.1374 58.7877H43.678V59.7769H37.9704C38.0089 59.0593 38.1571 58.4347 38.4145 57.9032Z" fill="white"/>
<path d="M49.763 52.7773C50.1346 53.4638 50.3204 54.4045 50.3204 55.5992C50.3204 56.7319 50.1522 57.6685 49.8153 58.4095C49.3276 59.4723 48.53 60.0037 47.4231 60.0037C46.4244 60.0037 45.6811 59.5694 45.1935 58.7004C44.7871 57.9751 44.5839 57.0014 44.5839 55.7796C44.5839 54.8332 44.7058 54.0205 44.9496 53.3416C45.4063 52.0771 46.2327 51.4448 47.4289 51.4448C48.5049 51.4448 49.283 51.8891 49.763 52.7773ZM48.7113 58.3279C49.0332 57.847 49.194 56.951 49.194 55.6399C49.194 54.6934 49.0775 53.9147 48.8449 53.3038C48.6123 52.6929 48.1606 52.3874 47.4899 52.3874C46.8734 52.3874 46.4226 52.6774 46.1377 53.2574C45.8525 53.8372 45.7101 54.6915 45.7101 55.8203C45.7101 56.6698 45.8012 57.3526 45.9835 57.8684C46.2626 58.6559 46.7396 59.0496 47.4141 59.0496C47.9571 59.0495 48.3893 58.8089 48.7113 58.3279Z" fill="white"/>
<path d="M51.9636 53.8769V53.074C52.7184 53.0003 53.2447 52.8772 53.543 52.7045C53.8409 52.5319 54.0634 52.1237 54.2107 51.4797H55.0352V59.7767H53.9203V53.8768L51.9636 53.8769Z" fill="white"/>
<path d="M58.9079 57.6531C58.9776 58.2505 59.2543 58.6636 59.7383 58.8925C59.986 59.0089 60.2726 59.0671 60.5977 59.0671C61.217 59.0671 61.6757 58.8692 61.9738 58.4735C62.2718 58.0779 62.421 57.6396 62.421 57.1586C62.421 56.5768 62.2439 56.1268 61.8897 55.8087C61.5355 55.4906 61.1107 55.3315 60.6152 55.3315C60.2551 55.3315 59.9465 55.4014 59.6891 55.541C59.4316 55.6806 59.212 55.8746 59.03 56.1229L58.1243 56.0705L58.7573 51.5846H63.077V52.5969H59.541L59.1867 54.9127C59.3803 54.7653 59.5641 54.6548 59.7383 54.581C60.0479 54.453 60.4061 54.3891 60.8124 54.3891C61.5749 54.3891 62.2215 54.6353 62.7517 55.128C63.282 55.6205 63.5472 56.2451 63.5472 57.0015C63.5472 57.789 63.3042 58.4834 62.8185 59.0845C62.3327 59.6858 61.5575 59.9864 60.493 59.9864C59.8155 59.9864 59.2165 59.7952 58.696 59.4133C58.1754 59.0313 57.884 58.4446 57.822 57.6532L58.9079 57.6531Z" fill="white"/>
</g>
<defs>
<filter id="filter0_d_141_259" x="0.0908203" y="0.00384521" width="71.8281" height="72" filterUnits="userSpaceOnUse" color-interpolation-filters="sRGB">
<feFlood flood-opacity="0" result="BackgroundImageFix"/>
<feColorMatrix in="SourceAlpha" type="matrix" values="0 0 0 0 0 0 0 0 0 0 0 0 0 0 0 0 0 0 127 0" result="hardAlpha"/>
<feOffset dy="4"/>
<feGaussianBlur stdDeviation="4"/>
<feComposite in2="hardAlpha" operator="out"/>
<feColorMatrix type="matrix" values="0 0 0 0 0 0 0 0 0 0 0 0 0 0 0 0 0 0 0.5 0"/>
<feBlend mode="normal" in2="BackgroundImageFix" result="effect1_dropShadow_141_259"/>
<feBlend mode="normal" in="SourceGraphic" in2="effect1_dropShadow_141_259" result="shape"/>
</filter>
</defs>
</svg>
