<svg width="75" height="72" viewBox="0 0 75 72" fill="none" xmlns="http://www.w3.org/2000/svg">
<g filter="url(#filter0_d_141_262)">
<path d="M63.3884 21.0048C62.8838 19.6677 61.8494 18.4819 60.588 17.6242C56.9298 15.3031 51.3542 15.1265 47.5951 17.2457C45.5516 18.3053 44.1892 20.3741 43.7603 22.4933C43.0034 26.0001 43.2053 30.1629 45.9048 32.7867C49.0584 35.5367 53.6248 36.1674 57.7119 35.0321C57.9137 35.0069 58.5192 34.8303 58.9481 34.6284L59.0743 34.578C60.3357 34.0482 61.5467 33.1904 62.4549 32.0299C64.5237 28.9772 64.6498 24.436 63.3884 21.0048ZM56.7532 28.8762C56.6018 29.5322 56.1729 30.2386 55.4665 30.4909C54.3312 30.9955 52.8175 30.8441 51.7831 30.2638C50.9001 29.6583 50.7992 28.624 50.6983 27.6653C50.6226 25.7731 50.4712 23.7548 51.001 22.014C51.4299 20.9291 52.5652 20.6516 53.6248 20.5759C54.7097 20.5759 55.7945 20.7525 56.4757 21.6355C56.9046 22.2663 56.8793 23.0988 56.955 23.8557C56.9046 25.3947 57.0307 27.2868 56.7532 28.8762Z" fill="white"/>
<path d="M23.4511 30.5918C22.5176 30.5413 21.4832 30.617 20.575 30.5161L20.6002 20.8282L20.6506 20.7525L23.4258 20.7273C23.451 19.1631 23.4763 17.4728 23.4006 16.0347L12.8044 16.0095L11.0637 16.0347C11.0384 17.498 11.0384 19.2136 11.0637 20.7021C12.0224 20.7273 12.9306 20.7021 13.8388 20.7778V30.1629L13.8136 30.5413L11.0384 30.5918C10.988 32.1308 10.988 33.6193 11.0384 35.1582H23.4258V30.5918H23.4511Z" fill="white"/>
<path d="M54.6592 37.227C53.4734 38.9173 51.9849 40.532 50.3703 41.8187C50.3198 41.8943 50.1432 41.8691 50.0928 41.7934C49.3864 41.3645 48.6295 40.9861 47.9483 40.5572C48.8566 39.4724 49.7143 38.4128 50.3955 37.2018H49.5125C48.8061 38.2362 48.0745 39.2958 47.141 40.204C45.9048 39.6994 44.7695 39.2705 43.508 38.9426L43.3567 38.8417C43.5585 38.2866 43.9117 37.7568 44.0378 37.2018H43.281L42.5241 38.6903C40.859 38.3371 39.0425 38.1352 37.3522 38.0343C37.2765 37.782 37.3774 37.4288 37.2765 37.2018H36.5448C36.4944 37.5298 36.6205 37.782 36.4692 38.0596C34.7284 38.1352 33.038 38.3371 31.3982 38.6651L30.6413 37.2018C30.3638 37.2018 30.061 37.1513 29.8592 37.227L30.5656 38.8669L30.4899 38.9426C29.2285 39.2958 27.9923 39.7499 26.7813 40.2545L26.6803 40.204C25.8982 39.3462 25.1414 38.4128 24.5107 37.4793C24.3593 36.9999 23.8043 37.2775 23.5015 37.227C24.1827 38.438 25.0657 39.5228 25.9739 40.6329C25.2171 41.087 24.4602 41.5664 23.6781 41.9196C21.9878 40.6581 20.4236 38.993 19.2378 37.2522C18.9098 37.2018 18.6828 37.227 18.3296 37.2522C20.3479 40.4058 23.5015 43.1558 26.7813 44.7957C26.7813 44.7957 26.7813 44.7704 26.8065 44.7704C26.8317 44.7704 26.8822 44.8209 26.8317 44.8461C29.0519 45.931 31.4234 46.6878 33.921 47.041C42.5493 48.1763 50.7992 44.4929 55.5674 37.2522C55.2899 37.2018 54.9367 37.2018 54.6592 37.227ZM42.9278 39.6994L43.0034 39.649C44.2144 39.9265 45.375 40.3049 46.4346 40.8347C45.5263 41.8439 44.391 42.7521 43.3062 43.4838C42.6502 43.8622 42.0195 44.2911 41.3383 44.6191L40.1274 44.0893L40.203 43.8874C41.2374 42.5503 42.1457 41.1627 42.9278 39.6994ZM37.4026 38.8669C39.0173 38.8921 40.6067 39.0687 42.0952 39.4219L42.1204 39.4976C41.3383 40.9861 40.3544 42.4242 39.2696 43.7865C38.7902 43.837 38.3361 43.6604 37.8568 43.6351L37.3774 43.5847C37.3269 41.9448 37.3017 40.5068 37.4026 38.8669ZM31.9784 39.3715C33.4417 39.0939 34.9554 38.8669 36.5196 38.8669L36.5448 43.5342C35.9646 43.6604 35.3086 43.6604 34.7536 43.8117C33.5931 42.4494 32.6344 40.9861 31.827 39.4724L31.9784 39.3715ZM27.4372 40.86C28.5473 40.3302 29.6826 39.9517 30.8683 39.649L30.9945 39.6742C31.8018 41.1879 32.811 42.626 33.8201 44.064C33.4165 44.2911 32.9371 44.4172 32.5587 44.6443C30.6917 43.7361 28.9257 42.4494 27.4372 40.9356V40.86ZM31.0702 45.603C28.6987 44.9975 26.5037 43.9379 24.4854 42.4998V42.4242C25.1666 42.0205 25.8478 41.5664 26.5542 41.2636C28.1688 42.8531 29.8087 44.0388 31.6252 45.1489C31.4991 45.3255 31.272 45.4769 31.0702 45.603ZM41.4897 45.9562C38.5127 46.5869 35.1825 46.6122 32.2055 45.9057C32.155 45.7796 32.3568 45.7291 32.4325 45.6535C35.0563 43.9631 39.1182 43.9631 41.6915 45.7796C41.7672 45.9562 41.5402 45.9057 41.4897 45.9562ZM44.1892 45.1741L42.8773 45.5778C42.6502 45.4768 42.4484 45.3003 42.2466 45.1236L42.297 45.048C44.0883 43.9883 45.7282 42.7269 47.2671 41.2132C48.024 41.5159 48.7556 41.9448 49.4368 42.3989C47.8726 43.6604 46.0561 44.4929 44.1892 45.1741Z" fill="white"/>
<path d="M19.1369 13.8903C19.8181 12.9568 20.575 12.0486 21.4075 11.1656C22.1391 10.4844 22.8203 9.8032 23.6024 9.32385C24.3341 9.8032 25.1414 10.1816 25.8478 10.6358C24.9648 11.6954 24.0818 12.7802 23.4258 13.9407C23.6276 14.0164 23.9809 13.9912 24.2584 13.9407C24.9648 12.9316 25.7216 11.8972 26.6299 10.989C27.8409 11.4431 29.0266 11.8972 30.2629 12.2252L30.3638 12.3261L29.6574 13.9155C29.9601 13.966 30.1619 13.9407 30.4647 13.9155C30.717 13.4362 30.9188 12.9316 31.1963 12.4522C32.8362 12.8054 34.5518 13.0073 36.2926 13.0577C36.5196 13.2596 36.343 13.6632 36.4439 13.9155H37.2008C37.2765 13.638 37.1756 13.3352 37.2765 13.083C38.9164 13.0073 40.6319 12.8307 42.1961 12.4522L42.3223 12.4775L43.0791 13.9155C43.3314 13.9155 43.6594 13.966 43.8612 13.8651L43.1548 12.2756L43.2053 12.2252C44.492 11.8972 45.7029 11.3926 46.9392 10.9133C47.8222 11.8215 48.6295 12.9064 49.3611 13.9407C49.6639 13.9407 49.9666 13.966 50.1937 13.8903C49.8657 13.2848 49.4368 12.6793 48.9827 12.1495C48.6043 11.6197 48.2258 11.1656 47.7465 10.661V10.5096L49.7143 9.37431L49.9919 9.27339C51.7074 10.5601 53.2212 12.1495 54.4321 13.8903C54.7601 13.8903 55.0629 14.0164 55.3404 13.8651C51.5813 8.23901 45.3497 4.60605 38.6388 4.07624L38.6136 4.1267L38.5632 4.07624C37.8063 4.00055 36.8728 3.97532 36.0655 4.05101C35.7628 4.02578 35.3843 4.05101 35.0311 4.07624C28.295 4.60605 22.0635 8.0624 18.2034 13.9407C18.5314 13.8903 18.8594 13.9912 19.1369 13.8903ZM30.8179 11.4431L30.717 11.4683C29.5564 11.1656 28.4464 10.8124 27.3615 10.333L27.412 10.1564C28.9509 8.69312 30.5908 7.48214 32.3821 6.54867C32.811 6.72527 33.2146 6.85142 33.6435 7.05325L33.5678 7.28031C32.5082 8.61744 31.6504 10.0303 30.8179 11.4431ZM36.4187 12.1999C35.6366 12.3009 34.9302 12.1747 34.1481 12.1243C33.3912 12.0233 32.4325 11.9224 31.6757 11.6701C32.483 10.1564 33.4417 8.69313 34.6022 7.33076L36.3935 7.58305C36.4692 9.0211 36.4187 10.6862 36.4187 12.1999ZM37.2765 12.2252C37.226 10.7619 37.2513 9.12202 37.2765 7.60828C37.8315 7.5326 38.4622 7.43168 39.0173 7.356C40.1021 8.74358 41.187 10.1564 41.9186 11.6701C40.4049 12.0233 38.8407 12.2252 37.2765 12.2252ZM46.258 10.2825C45.1479 10.7619 44.0378 11.1908 42.8268 11.4431C41.9438 9.9798 41.0104 8.51652 39.9255 7.10371C40.3292 6.87665 40.8085 6.72527 41.2122 6.49821C43.0539 7.40645 44.8199 8.71836 46.3084 10.1816L46.258 10.2825ZM42.6502 5.56474C45.0218 6.17024 47.2419 7.22985 49.2602 8.6679L49.2098 8.76881L47.2671 9.85365H47.1158C45.6273 8.36515 43.8865 7.07848 42.1204 6.04409C42.1709 5.84226 42.4484 5.69089 42.6502 5.56474ZM41.5149 5.28723V5.33768C39.0677 7.10371 35.1068 7.28031 32.5082 5.64043C32.3569 5.53951 32.0793 5.46383 32.0541 5.28723C35.0563 4.60605 38.5632 4.55559 41.5149 5.28723ZM24.3845 8.71835C26.1505 7.43168 28.1184 6.44776 30.2124 5.7918C30.2881 5.71612 30.3638 5.6152 30.4647 5.6152V5.66566C30.6917 5.71612 30.8683 5.46383 31.0449 5.64043C31.2215 5.7918 31.4234 5.89272 31.5495 6.01886C29.8087 7.10371 28.0932 8.36515 26.529 9.90411C25.7721 9.62659 25.0657 9.22293 24.3845 8.74358V8.71835Z" fill="white"/>
<path d="M36.4439 30.8189C33.7949 31.5505 30.944 30.9955 29.0266 29.0024C28.7996 28.7249 28.6734 28.3969 28.4464 28.1194L24.662 28.1446C24.6116 30.39 24.5863 32.9381 24.662 35.1582L28.8753 35.133L28.9257 33.7959C29.4051 34.0229 29.8844 34.3005 30.3638 34.5275C33.2903 35.7385 37.0494 36.016 39.9508 34.5275C42.07 33.367 43.1801 31.1216 42.8773 28.7249C42.5746 26.3786 40.3292 24.2594 38.0334 23.6791L31.2215 21.7112L30.717 21.4589C30.4899 21.2571 30.3385 21.0301 30.4142 20.7273C30.944 19.8191 32.1802 20.0966 33.1137 20.1218C35.0816 20.3993 37.0999 21.0553 38.2604 22.8465C39.4966 22.8465 40.9347 22.8718 42.2718 22.8213C42.3223 20.5507 42.2466 18.5829 42.2214 16.287C40.9599 16.2618 39.4209 16.2618 38.1343 16.3123C38.0838 16.6402 38.1847 17.1196 38.0586 17.4476L36.7719 16.7664C33.6688 15.4797 29.3546 15.3283 26.529 17.3466C24.7125 18.6585 24.1322 21.0553 24.6116 23.1493C24.9648 25.1424 26.8822 26.6056 28.7239 27.2868C31.2215 28.1698 33.8454 28.8006 36.3682 29.6583C36.6205 29.7593 36.9485 30.0115 36.8981 30.3143C36.8981 30.5666 36.6205 30.6927 36.4439 30.8189Z" fill="white"/>
<path d="M8.72998 56.7349L12.538 51.5728H13.2594V56.7349H13.9926V57.9589H13.2594V59.7564H11.6333V57.9589H8.72998V56.7349ZM9.30354 56.7349H11.6333V53.5714L9.30354 56.7349Z" fill="white"/>
<path d="M16.3282 51.7384H20.083L19.4858 53.2639H16.3282L16.0267 54.0622C17.3866 54.1134 18.4333 54.4525 19.1665 55.0792C19.7696 55.5956 20.0712 56.2382 20.0712 57.0069C20.0712 57.4996 19.9312 57.9825 19.6513 58.4556C19.3715 58.9247 18.9773 59.2873 18.4687 59.5436C17.9602 59.7959 17.4024 59.922 16.7953 59.922C16.141 59.922 15.6384 59.7998 15.2875 59.5554C15.0431 59.3819 14.9209 59.1848 14.9209 58.9641C14.9209 58.7946 14.984 58.6448 15.1101 58.5147C15.2402 58.3846 15.39 58.3196 15.5595 58.3196C15.7133 58.3196 15.869 58.3511 16.0267 58.4142C16.1843 58.4773 16.4544 58.6428 16.8367 58.9109C17.0772 59.0764 17.2842 59.1908 17.4576 59.2538C17.5798 59.3011 17.7178 59.3248 17.8715 59.3248C18.1948 59.3248 18.4687 59.2065 18.6934 58.97C18.9221 58.7335 19.0364 58.4497 19.0364 58.1185C19.0364 57.4247 18.6895 56.861 17.9957 56.4274C17.3019 55.9938 16.4268 55.777 15.3703 55.777C15.2639 55.777 15.1042 55.7789 14.8914 55.7829L16.3282 51.7384Z" fill="white"/>
<path d="M26.1498 55.7474C26.1498 56.5476 26.0374 57.2947 25.8127 57.9884C25.6787 58.4142 25.4973 58.7631 25.2687 59.035C25.044 59.307 24.7878 59.5239 24.5 59.6855C24.2123 59.8432 23.8989 59.922 23.5598 59.922C23.1735 59.922 22.8247 59.8235 22.5132 59.6264C22.2018 59.4292 21.9259 59.1474 21.6854 58.7808C21.512 58.5127 21.3602 58.156 21.2301 57.7105C21.0606 57.1074 20.9759 56.4846 20.9759 55.842C20.9759 54.9708 21.0981 54.1706 21.3425 53.4413C21.5435 52.8382 21.849 52.377 22.259 52.0577C22.669 51.7344 23.1026 51.5728 23.5598 51.5728C24.025 51.5728 24.4586 51.7325 24.8607 52.0518C25.2667 52.3671 25.5644 52.7929 25.7536 53.329C26.0177 54.0661 26.1498 54.8723 26.1498 55.7474ZM24.3285 55.7356C24.3285 54.3322 24.3207 53.5143 24.3049 53.2817C24.2655 52.7337 24.1709 52.3632 24.0211 52.17C23.9225 52.0439 23.7629 51.9808 23.5421 51.9808C23.3726 51.9808 23.2386 52.0281 23.14 52.1227C22.9942 52.2607 22.8956 52.5051 22.8444 52.8559C22.7931 53.2028 22.7675 54.4189 22.7675 56.5043C22.7675 57.6396 22.8069 58.4004 22.8858 58.7867C22.9449 59.0666 23.0296 59.2538 23.14 59.3484C23.2504 59.443 23.3963 59.4904 23.5776 59.4904C23.7747 59.4904 23.9225 59.4273 24.0211 59.3011C24.1866 59.0804 24.2812 58.7394 24.3049 58.2782L24.3285 55.7356Z" fill="white"/>
<path d="M32.2047 55.7474C32.2047 56.5476 32.0923 57.2947 31.8676 57.9884C31.7336 58.4142 31.5523 58.7631 31.3236 59.035C31.099 59.307 30.8427 59.5239 30.555 59.6855C30.2672 59.8432 29.9538 59.922 29.6148 59.922C29.2285 59.922 28.8796 59.8235 28.5682 59.6264C28.2568 59.4292 27.9808 59.1474 27.7404 58.7808C27.5669 58.5127 27.4151 58.156 27.2851 57.7105C27.1155 57.1074 27.0308 56.4846 27.0308 55.842C27.0308 54.9708 27.153 54.1706 27.3974 53.4413C27.5984 52.8382 27.9039 52.377 28.3139 52.0577C28.7239 51.7344 29.1575 51.5728 29.6148 51.5728C30.0799 51.5728 30.5136 51.7325 30.9156 52.0518C31.3217 52.3671 31.6193 52.7929 31.8085 53.329C32.0726 54.0661 32.2047 54.8723 32.2047 55.7474ZM30.3835 55.7356C30.3835 54.3322 30.3756 53.5143 30.3598 53.2817C30.3204 52.7337 30.2258 52.3632 30.076 52.17C29.9774 52.0439 29.8178 51.9808 29.597 51.9808C29.4275 51.9808 29.2935 52.0281 29.195 52.1227C29.0491 52.2607 28.9506 52.5051 28.8993 52.8559C28.8481 53.2028 28.8224 54.4189 28.8224 56.5043C28.8224 57.6396 28.8619 58.4004 28.9407 58.7867C28.9998 59.0666 29.0846 59.2538 29.195 59.3484C29.3053 59.443 29.4512 59.4904 29.6325 59.4904C29.8296 59.4904 29.9774 59.4273 30.076 59.3011C30.2416 59.0804 30.3362 58.7394 30.3598 58.2782L30.3835 55.7356Z" fill="white"/>
<path d="M36.5922 51.5728V58.1304C36.5922 58.6231 36.6138 58.9385 36.6572 59.0764C36.7006 59.2105 36.7912 59.3208 36.9292 59.4076C37.0672 59.4943 37.2879 59.5377 37.5915 59.5377H37.7748V59.7564H33.5529V59.5377H33.7657C34.1087 59.5377 34.3531 59.4982 34.4989 59.4194C34.6448 59.3406 34.7433 59.2322 34.7946 59.0942C34.8458 58.9562 34.8715 58.6349 34.8715 58.1304V53.9735C34.8715 53.603 34.8537 53.3723 34.8182 53.2817C34.7828 53.1871 34.7158 53.1082 34.6172 53.0452C34.5226 52.9781 34.4122 52.9446 34.2861 52.9446C34.085 52.9446 33.8406 53.0077 33.5529 53.1339L33.4464 52.921L36.397 51.5728H36.5922Z" fill="white"/>
<path d="M40.7254 54.0681C40.9974 54.0681 41.228 54.1647 41.4172 54.3578C41.6103 54.5471 41.7069 54.7777 41.7069 55.0497C41.7069 55.3217 41.6103 55.5542 41.4172 55.7474C41.228 55.9366 40.9974 56.0312 40.7254 56.0312C40.4534 56.0312 40.2208 55.9366 40.0276 55.7474C39.8384 55.5542 39.7438 55.3217 39.7438 55.0497C39.7438 54.7777 39.8384 54.5471 40.0276 54.3578C40.2208 54.1647 40.4534 54.0681 40.7254 54.0681ZM40.7194 57.9352C40.9954 57.9352 41.228 58.0318 41.4172 58.225C41.6103 58.4181 41.7069 58.6507 41.7069 58.9227C41.7069 59.1947 41.6103 59.4273 41.4172 59.6204C41.224 59.8097 40.9914 59.9043 40.7194 59.9043C40.4474 59.9043 40.2149 59.8097 40.0217 59.6204C39.8325 59.4273 39.7379 59.1947 39.7379 58.9227C39.7379 58.6507 39.8325 58.4181 40.0217 58.225C40.2149 58.0318 40.4474 57.9352 40.7194 57.9352Z" fill="white"/>
<path d="M47.75 59.7564H43.0314V59.6264C44.4782 57.9037 45.3553 56.7447 45.6627 56.1495C45.9742 55.5542 46.1299 54.9728 46.1299 54.4052C46.1299 53.9912 46.0017 53.6483 45.7455 53.3763C45.4893 53.1003 45.1759 52.9624 44.8053 52.9624C44.1983 52.9624 43.7272 53.2659 43.3921 53.873L43.1734 53.7961C43.3862 53.0392 43.7095 52.4795 44.1431 52.1168C44.5767 51.7541 45.0773 51.5728 45.645 51.5728C46.051 51.5728 46.4216 51.6674 46.7566 51.8566C47.0917 52.0459 47.3539 52.306 47.5431 52.6372C47.7323 52.9643 47.8269 53.2718 47.8269 53.5596C47.8269 54.0839 47.681 54.6161 47.3893 55.1561C46.9912 55.8854 46.122 56.9024 44.7817 58.2072H46.5142C46.9399 58.2072 47.2159 58.1895 47.342 58.154C47.4721 58.1185 47.5786 58.0594 47.6613 57.9766C47.7441 57.8899 47.8525 57.7105 47.9866 57.4385H48.1994L47.75 59.7564Z" fill="white"/>
<path d="M54.4022 55.7474C54.4022 56.5476 54.2898 57.2947 54.0651 57.9884C53.9311 58.4142 53.7498 58.7631 53.5211 59.035C53.2964 59.307 53.0402 59.5239 52.7524 59.6855C52.4647 59.8432 52.1513 59.922 51.8123 59.922C51.426 59.922 51.0771 59.8235 50.7657 59.6264C50.4543 59.4292 50.1783 59.1474 49.9379 58.7808C49.7644 58.5127 49.6126 58.156 49.4825 57.7105C49.313 57.1074 49.2283 56.4846 49.2283 55.842C49.2283 54.9708 49.3505 54.1706 49.5949 53.4413C49.7959 52.8382 50.1014 52.377 50.5114 52.0577C50.9214 51.7344 51.355 51.5728 51.8123 51.5728C52.2774 51.5728 52.7111 51.7325 53.1131 52.0518C53.5192 52.3671 53.8168 52.7929 54.006 53.329C54.2701 54.0661 54.4022 54.8723 54.4022 55.7474ZM52.581 55.7356C52.581 54.3322 52.5731 53.5143 52.5573 53.2817C52.5179 52.7337 52.4233 52.3632 52.2735 52.17C52.1749 52.0439 52.0153 51.9808 51.7945 51.9808C51.625 51.9808 51.491 52.0281 51.3925 52.1227C51.2466 52.2607 51.148 52.5051 51.0968 52.8559C51.0456 53.2028 51.0199 54.4189 51.0199 56.5043C51.0199 57.6396 51.0594 58.4004 51.1382 58.7867C51.1973 59.0666 51.2821 59.2538 51.3925 59.3484C51.5028 59.443 51.6487 59.4904 51.83 59.4904C52.0271 59.4904 52.1749 59.4273 52.2735 59.3011C52.4391 59.0804 52.5337 58.7394 52.5573 58.2782L52.581 55.7356Z" fill="white"/>
<path d="M58.7896 51.5728V58.1304C58.7896 58.6231 58.8113 58.9385 58.8547 59.0764C58.8981 59.2105 58.9887 59.3208 59.1267 59.4076C59.2647 59.4943 59.4854 59.5377 59.7889 59.5377H59.9723V59.7564H55.7504V59.5377H55.9632C56.3062 59.5377 56.5506 59.4982 56.6964 59.4194C56.8423 59.3406 56.9408 59.2322 56.9921 59.0942C57.0433 58.9562 57.069 58.6349 57.069 58.1304V53.9735C57.069 53.603 57.0512 53.3723 57.0157 53.2817C56.9803 53.1871 56.9132 53.1082 56.8147 53.0452C56.7201 52.9781 56.6097 52.9446 56.4836 52.9446C56.2825 52.9446 56.0381 53.0077 55.7504 53.1339L55.6439 52.921L58.5945 51.5728H58.7896Z" fill="white"/>
<path d="M65.0279 55.2271C65.5916 55.641 65.9819 56.0273 66.1987 56.386C66.4194 56.7408 66.5298 57.1488 66.5298 57.61C66.5298 58.2565 66.2854 58.8044 65.7966 59.2538C65.3117 59.6993 64.6514 59.922 63.8157 59.922C63.0234 59.922 62.4104 59.7269 61.9768 59.3366C61.5431 58.9464 61.3263 58.4694 61.3263 57.9057C61.3263 57.476 61.4505 57.0995 61.6989 56.7763C61.9511 56.453 62.369 56.1574 62.9524 55.8893C62.3178 55.4045 61.9098 55.0083 61.7284 54.7008C61.551 54.3933 61.4623 54.0366 61.4623 53.6305C61.4623 53.0944 61.689 52.6234 62.1423 52.2173C62.5996 51.8074 63.2244 51.6024 64.0168 51.6024C64.7815 51.6024 65.3689 51.7837 65.7788 52.1464C66.1928 52.5051 66.3997 52.9368 66.3997 53.4413C66.3997 53.8198 66.2874 54.1548 66.0627 54.4465C65.8419 54.7343 65.497 54.9945 65.0279 55.2271ZM64.5785 54.9255C64.7244 54.7284 64.8328 54.5076 64.9037 54.2632C64.9747 54.0188 65.0102 53.7508 65.0102 53.4591C65.0102 52.9466 64.8998 52.5544 64.679 52.2824C64.5135 52.0735 64.2848 51.969 63.9931 51.969C63.729 51.969 63.5043 52.0656 63.319 52.2587C63.1338 52.4479 63.0411 52.6845 63.0411 52.9683C63.0411 53.2561 63.1436 53.5556 63.3486 53.8671C63.5575 54.1745 63.9675 54.5274 64.5785 54.9255ZM63.3959 56.1731C63.2737 56.2835 63.187 56.384 63.1357 56.4747C63.0569 56.6127 62.9859 56.8137 62.9229 57.0778C62.8598 57.342 62.8282 57.6179 62.8282 57.9057C62.8282 58.2762 62.8755 58.5876 62.9702 58.8399C63.0648 59.0883 63.1988 59.2676 63.3722 59.378C63.5496 59.4884 63.731 59.5436 63.9162 59.5436C64.204 59.5436 64.4464 59.4391 64.6435 59.2302C64.8406 59.0173 64.9392 58.7276 64.9392 58.361C64.9392 57.5962 64.4248 56.8669 63.3959 56.1731Z" fill="white"/>
</g>
<defs>
<filter id="filter0_d_141_262" x="0.72998" y="0.00531006" width="73.7998" height="71.9167" filterUnits="userSpaceOnUse" color-interpolation-filters="sRGB">
<feFlood flood-opacity="0" result="BackgroundImageFix"/>
<feColorMatrix in="SourceAlpha" type="matrix" values="0 0 0 0 0 0 0 0 0 0 0 0 0 0 0 0 0 0 127 0" result="hardAlpha"/>
<feOffset dy="4"/>
<feGaussianBlur stdDeviation="4"/>
<feComposite in2="hardAlpha" operator="out"/>
<feColorMatrix type="matrix" values="0 0 0 0 0 0 0 0 0 0 0 0 0 0 0 0 0 0 0.5 0"/>
<feBlend mode="normal" in2="BackgroundImageFix" result="effect1_dropShadow_141_262"/>
<feBlend mode="normal" in="SourceGraphic" in2="effect1_dropShadow_141_262" result="shape"/>
</filter>
</defs>
</svg>
