<svg width="74" height="72" viewBox="0 0 74 72" fill="none" xmlns="http://www.w3.org/2000/svg">
<g filter="url(#filter0_d_141_260)">
<path d="M62.9031 21.0048C62.3986 19.6677 61.3642 18.4819 60.1027 17.6242C56.4446 15.3031 50.869 15.1265 47.1099 17.2457C45.0663 18.3053 43.704 20.3741 43.2751 22.4933C42.5182 26.0001 42.72 30.1629 45.4195 32.7867C48.5731 35.5367 53.1396 36.1674 57.2266 35.0321C57.4285 35.0069 58.034 34.8303 58.4629 34.6284L58.589 34.578C59.8504 34.0482 61.0614 33.1904 61.9697 32.0299C64.0384 28.9772 64.1646 24.436 62.9031 21.0048ZM56.268 28.8762C56.1166 29.5322 55.6877 30.2386 54.9813 30.4909C53.846 30.9955 52.3322 30.8441 51.2979 30.2638C50.4149 29.6583 50.3139 28.624 50.213 27.6653C50.1373 25.7731 49.986 23.7548 50.5158 22.014C50.9447 20.9291 52.08 20.6516 53.1396 20.5759C54.2244 20.5759 55.3093 20.7525 55.9904 21.6355C56.4193 22.2663 56.3941 23.0988 56.4698 23.8557C56.4193 25.3947 56.5455 27.2868 56.268 28.8762Z" fill="white"/>
<path d="M22.9658 30.5918C22.0324 30.5413 20.998 30.617 20.0897 30.5161L20.115 20.8282L20.1654 20.7525L22.9406 20.7273C22.9658 19.1631 22.9911 17.4728 22.9154 16.0347L12.3192 16.0095L10.5785 16.0347C10.5532 17.498 10.5532 19.2136 10.5785 20.7021C11.5372 20.7273 12.4454 20.7021 13.3536 20.7778V30.1629L13.3284 30.5413L10.5532 30.5918C10.5028 32.1308 10.5028 33.6193 10.5532 35.1582H22.9406V30.5918H22.9658Z" fill="white"/>
<path d="M54.174 37.227C52.9882 38.9173 51.4997 40.532 49.885 41.8187C49.8346 41.8943 49.658 41.8691 49.6075 41.7934C48.9011 41.3645 48.1443 40.9861 47.4631 40.5572C48.3713 39.4724 49.2291 38.4128 49.9103 37.2018H49.0273C48.3209 38.2362 47.5892 39.2958 46.6558 40.204C45.4195 39.6994 44.2842 39.2705 43.0228 38.9426L42.8714 38.8417C43.0732 38.2866 43.4265 37.7568 43.5526 37.2018H42.7957L42.0389 38.6903C40.3738 38.3371 38.5573 38.1352 36.8669 38.0343C36.7913 37.782 36.8922 37.4288 36.7913 37.2018H36.0596C36.0092 37.5298 36.1353 37.782 35.9839 38.0596C34.2431 38.1352 32.5528 38.3371 30.9129 38.6651L30.1561 37.2018C29.8785 37.2018 29.5758 37.1513 29.374 37.227L30.0804 38.8669L30.0047 38.9426C28.7432 39.2958 27.507 39.7499 26.296 40.2545L26.1951 40.204C25.413 39.3462 24.6562 38.4128 24.0254 37.4793C23.8741 36.9999 23.319 37.2775 23.0163 37.227C23.6975 38.438 24.5805 39.5228 25.4887 40.6329C24.7319 41.087 23.975 41.5664 23.1929 41.9196C21.5026 40.6581 19.9384 38.993 18.7526 37.2522C18.4246 37.2018 18.1976 37.227 17.8444 37.2522C19.8627 40.4058 23.0163 43.1558 26.296 44.7957C26.296 44.7957 26.296 44.7704 26.3213 44.7704C26.3465 44.7704 26.397 44.8209 26.3465 44.8461C28.5666 45.931 30.9382 46.6878 33.4358 47.041C42.0641 48.1763 50.3139 44.4929 55.0822 37.2522C54.8047 37.2018 54.4515 37.2018 54.174 37.227ZM42.4425 39.6994L42.5182 39.649C43.7292 39.9265 44.8897 40.3049 45.9493 40.8347C45.0411 41.8439 43.9058 42.7521 42.821 43.4838C42.165 43.8622 41.5343 44.2911 40.8531 44.6191L39.6421 44.0893L39.7178 43.8874C40.7522 42.5503 41.6604 41.1627 42.4425 39.6994ZM36.9174 38.8669C38.532 38.8921 40.1215 39.0687 41.61 39.4219L41.6352 39.4976C40.8531 40.9861 39.8692 42.4242 38.7843 43.7865C38.305 43.837 37.8509 43.6604 37.3715 43.6351L36.8922 43.5847C36.8417 41.9448 36.8165 40.5068 36.9174 38.8669ZM31.4932 39.3715C32.9565 39.0939 34.4702 38.8669 36.0344 38.8669L36.0596 43.5342C35.4794 43.6604 34.8234 43.6604 34.2684 43.8117C33.1078 42.4494 32.1491 40.9861 31.3418 39.4724L31.4932 39.3715ZM26.952 40.86C28.0621 40.3302 29.1974 39.9517 30.3831 39.649L30.5093 39.6742C31.3166 41.1879 32.3257 42.626 33.3349 44.064C32.9312 44.2911 32.4519 44.4172 32.0735 44.6443C30.2065 43.7361 28.4405 42.4494 26.952 40.9356V40.86ZM30.585 45.603C28.2134 44.9975 26.0185 43.9379 24.0002 42.4998V42.4242C24.6814 42.0205 25.3626 41.5664 26.069 41.2636C27.6836 42.8531 29.3235 44.0388 31.14 45.1489C31.0138 45.3255 30.7868 45.4769 30.585 45.603ZM41.0045 45.9562C38.0275 46.5869 34.6973 46.6122 31.7203 45.9057C31.6698 45.7796 31.8716 45.7291 31.9473 45.6535C34.5711 43.9631 38.633 43.9631 41.2063 45.7796C41.282 45.9562 41.0549 45.9057 41.0045 45.9562ZM43.704 45.1741L42.3921 45.5778C42.165 45.4768 41.9632 45.3003 41.7613 45.1236L41.8118 45.048C43.6031 43.9883 45.2429 42.7269 46.7819 41.2132C47.5388 41.5159 48.2704 41.9448 48.9516 42.3989C47.3874 43.6604 45.5709 44.4929 43.704 45.1741Z" fill="white"/>
<path d="M18.6517 13.8903C19.3329 12.9568 20.0897 12.0486 20.9223 11.1656C21.6539 10.4844 22.3351 9.8032 23.1172 9.32385C23.8488 9.8032 24.6562 10.1816 25.3626 10.6358C24.4796 11.6954 23.5966 12.7802 22.9406 13.9407C23.1424 14.0164 23.4956 13.9912 23.7732 13.9407C24.4796 12.9316 25.2364 11.8972 26.1447 10.989C27.3557 11.4431 28.5414 11.8972 29.7776 12.2252L29.8785 12.3261L29.1721 13.9155C29.4749 13.966 29.6767 13.9407 29.9795 13.9155C30.2317 13.4362 30.4336 12.9316 30.7111 12.4522C32.351 12.8054 34.0665 13.0073 35.8073 13.0577C36.0344 13.2596 35.8578 13.6632 35.9587 13.9155H36.7156C36.7913 13.638 36.6903 13.3352 36.7913 13.083C38.4311 13.0073 40.1467 12.8307 41.7109 12.4522L41.837 12.4775L42.5939 13.9155C42.8462 13.9155 43.1742 13.966 43.376 13.8651L42.6696 12.2756L42.72 12.2252C44.0067 11.8972 45.2177 11.3926 46.4539 10.9133C47.3369 11.8215 48.1442 12.9064 48.8759 13.9407C49.1786 13.9407 49.4814 13.966 49.7084 13.8903C49.3805 13.2848 48.9516 12.6793 48.4975 12.1495C48.119 11.6197 47.7406 11.1656 47.2612 10.661V10.5096L49.2291 9.37431L49.5066 9.27339C51.2222 10.5601 52.7359 12.1495 53.9469 13.8903C54.2749 13.8903 54.5776 14.0164 54.8551 13.8651C51.096 8.23901 44.8645 4.60605 38.1536 4.07624L38.1284 4.1267L38.0779 4.07624C37.3211 4.00055 36.3876 3.97532 35.5803 4.05101C35.2775 4.02578 34.8991 4.05101 34.5459 4.07624C27.8098 4.60605 21.5782 8.0624 17.7182 13.9407C18.0462 13.8903 18.3742 13.9912 18.6517 13.8903ZM30.3327 11.4431L30.2317 11.4683C29.0712 11.1656 27.9612 10.8124 26.8763 10.333L26.9268 10.1564C28.4657 8.69312 30.1056 7.48214 31.8969 6.54867C32.3257 6.72527 32.7294 6.85142 33.1583 7.05325L33.0826 7.28031C32.023 8.61744 31.1652 10.0303 30.3327 11.4431ZM35.9335 12.1999C35.1514 12.3009 34.445 12.1747 33.6629 12.1243C32.906 12.0233 31.9473 11.9224 31.1904 11.6701C31.9978 10.1564 32.9565 8.69313 34.117 7.33076L35.9082 7.58305C35.9839 9.0211 35.9335 10.6862 35.9335 12.1999ZM36.7913 12.2252C36.7408 10.7619 36.766 9.12202 36.7913 7.60828C37.3463 7.5326 37.977 7.43168 38.5321 7.356C39.6169 8.74358 40.7017 10.1564 41.4334 11.6701C39.9196 12.0233 38.3554 12.2252 36.7913 12.2252ZM45.7727 10.2825C44.6627 10.7619 43.5526 11.1908 42.3416 11.4431C41.4586 9.9798 40.5251 8.51652 39.4403 7.10371C39.844 6.87665 40.3233 6.72527 40.727 6.49821C42.5687 7.40645 44.3347 8.71836 45.8232 10.1816L45.7727 10.2825ZM42.165 5.56474C44.5365 6.17024 46.7567 7.22985 48.775 8.6679L48.7245 8.76881L46.7819 9.85365H46.6305C45.142 8.36515 43.4012 7.07848 41.6352 6.04409C41.6857 5.84226 41.9632 5.69089 42.165 5.56474ZM41.0297 5.28723V5.33768C38.5825 7.10371 34.6216 7.28031 32.023 5.64043C31.8716 5.53951 31.5941 5.46383 31.5689 5.28723C34.5711 4.60605 38.0779 4.55559 41.0297 5.28723ZM23.8993 8.71835C25.6653 7.43168 27.6332 6.44776 29.7272 5.7918C29.8029 5.71612 29.8785 5.6152 29.9795 5.6152V5.66566C30.2065 5.71612 30.3831 5.46383 30.5597 5.64043C30.7363 5.7918 30.9382 5.89272 31.0643 6.01886C29.3235 7.10371 27.6079 8.36515 26.0438 9.90411C25.2869 9.62659 24.5805 9.22293 23.8993 8.74358V8.71835Z" fill="white"/>
<path d="M35.9587 30.8189C33.3097 31.5505 30.4588 30.9955 28.5414 29.0024C28.3144 28.7249 28.1882 28.3969 27.9611 28.1194L24.1768 28.1446C24.1264 30.39 24.1011 32.9381 24.1768 35.1582L28.39 35.133L28.4405 33.7959C28.9198 34.0229 29.3992 34.3005 29.8785 34.5275C32.8051 35.7385 36.5642 36.016 39.4655 34.5275C41.5847 33.367 42.6948 31.1216 42.3921 28.7249C42.0893 26.3786 39.844 24.2594 37.5481 23.6791L30.7363 21.7112L30.2317 21.4589C30.0047 21.2571 29.8533 21.0301 29.929 20.7273C30.4588 19.8191 31.695 20.0966 32.6285 20.1218C34.5963 20.3993 36.6147 21.0553 37.7752 22.8465C39.0114 22.8465 40.4494 22.8718 41.7866 22.8213C41.837 20.5507 41.7613 18.5829 41.7361 16.287C40.4747 16.2618 38.9357 16.2618 37.649 16.3123C37.5986 16.6402 37.6995 17.1196 37.5734 17.4476L36.2867 16.7664C33.1835 15.4797 28.8694 15.3283 26.0438 17.3466C24.2273 18.6585 23.647 21.0553 24.1264 23.1493C24.4796 25.1424 26.397 26.6056 28.2387 27.2868C30.7363 28.1698 33.3601 28.8006 35.883 29.6583C36.1353 29.7593 36.4633 30.0115 36.4128 30.3143C36.4128 30.5666 36.1353 30.6927 35.9587 30.8189Z" fill="white"/>
<path d="M11.6428 51.5728V58.1304C11.6428 58.6231 11.6645 58.9385 11.7078 59.0764C11.7512 59.2105 11.8419 59.3208 11.9798 59.4076C12.1178 59.4943 12.3386 59.5377 12.6421 59.5377H12.8254V59.7564H8.6035V59.5377H8.81637C9.15933 59.5377 9.40373 59.4982 9.54959 59.4194C9.69544 59.3406 9.79399 59.2322 9.84524 59.0942C9.89648 58.9562 9.92211 58.6349 9.92211 58.1304V53.9735C9.92211 53.603 9.90437 53.3723 9.86889 53.2817C9.83341 53.1871 9.7664 53.1082 9.66785 53.0452C9.57324 52.9781 9.46286 52.9446 9.33672 52.9446C9.13568 52.9446 8.89127 53.0077 8.6035 53.1339L8.49707 52.921L11.4477 51.5728H11.6428Z" fill="white"/>
<path d="M14.0553 56.7349L17.8633 51.5728H18.5847V56.7349H19.3179V57.9589H18.5847V59.7564H16.9586V57.9589H14.0553V56.7349ZM14.6289 56.7349H16.9586V53.5714L14.6289 56.7349Z" fill="white"/>
<path d="M25.4201 55.7474C25.4201 56.5476 25.3078 57.2947 25.0831 57.9884C24.9491 58.4142 24.7677 58.7631 24.5391 59.035C24.3144 59.307 24.0582 59.5239 23.7704 59.6855C23.4826 59.8432 23.1692 59.922 22.8302 59.922C22.4439 59.922 22.095 59.8235 21.7836 59.6264C21.4722 59.4292 21.1963 59.1474 20.9558 58.7808C20.7824 58.5127 20.6306 58.156 20.5005 57.7105C20.331 57.1074 20.2462 56.4846 20.2462 55.842C20.2462 54.9708 20.3684 54.1706 20.6128 53.4413C20.8139 52.8382 21.1194 52.377 21.5294 52.0577C21.9393 51.7344 22.373 51.5728 22.8302 51.5728C23.2954 51.5728 23.729 51.7325 24.1311 52.0518C24.5371 52.3671 24.8347 52.7929 25.024 53.329C25.2881 54.0661 25.4201 54.8723 25.4201 55.7474ZM23.5989 55.7356C23.5989 54.3322 23.591 53.5143 23.5753 53.2817C23.5358 52.7337 23.4412 52.3632 23.2914 52.17C23.1929 52.0439 23.0332 51.9808 22.8125 51.9808C22.643 51.9808 22.509 52.0281 22.4104 52.1227C22.2645 52.2607 22.166 52.5051 22.1148 52.8559C22.0635 53.2028 22.0379 54.4189 22.0379 56.5043C22.0379 57.6396 22.0773 58.4004 22.1561 58.7867C22.2153 59.0666 22.3 59.2538 22.4104 59.3484C22.5208 59.443 22.6666 59.4904 22.848 59.4904C23.0451 59.4904 23.1929 59.4273 23.2914 59.3011C23.457 59.0804 23.5516 58.7394 23.5753 58.2782L23.5989 55.7356Z" fill="white"/>
<path d="M31.4751 55.7474C31.4751 56.5476 31.3627 57.2947 31.138 57.9884C31.004 58.4142 30.8227 58.7631 30.594 59.035C30.3693 59.307 30.1131 59.5239 29.8253 59.6855C29.5376 59.8432 29.2242 59.922 28.8852 59.922C28.4988 59.922 28.15 59.8235 27.8386 59.6264C27.5271 59.4292 27.2512 59.1474 27.0107 58.7808C26.8373 58.5127 26.6855 58.156 26.5554 57.7105C26.3859 57.1074 26.3012 56.4846 26.3012 55.842C26.3012 54.9708 26.4234 54.1706 26.6678 53.4413C26.8688 52.8382 27.1743 52.377 27.5843 52.0577C27.9943 51.7344 28.4279 51.5728 28.8852 51.5728C29.3503 51.5728 29.7839 51.7325 30.186 52.0518C30.592 52.3671 30.8897 52.7929 31.0789 53.329C31.343 54.0661 31.4751 54.8723 31.4751 55.7474ZM29.6539 55.7356C29.6539 54.3322 29.646 53.5143 29.6302 53.2817C29.5908 52.7337 29.4962 52.3632 29.3464 52.17C29.2478 52.0439 29.0882 51.9808 28.8674 51.9808C28.6979 51.9808 28.5639 52.0281 28.4653 52.1227C28.3195 52.2607 28.2209 52.5051 28.1697 52.8559C28.1184 53.2028 28.0928 54.4189 28.0928 56.5043C28.0928 57.6396 28.1322 58.4004 28.2111 58.7867C28.2702 59.0666 28.355 59.2538 28.4653 59.3484C28.5757 59.443 28.7216 59.4904 28.9029 59.4904C29.1 59.4904 29.2478 59.4273 29.3464 59.3011C29.5119 59.0804 29.6065 58.7394 29.6302 58.2782L29.6539 55.7356Z" fill="white"/>
<path d="M37.53 55.7474C37.53 56.5476 37.4176 57.2947 37.1929 57.9884C37.0589 58.4142 36.8776 58.7631 36.649 59.035C36.4243 59.307 36.168 59.5239 35.8803 59.6855C35.5925 59.8432 35.2791 59.922 34.9401 59.922C34.5538 59.922 34.2049 59.8235 33.8935 59.6264C33.5821 59.4292 33.3061 59.1474 33.0657 58.7808C32.8922 58.5127 32.7404 58.156 32.6104 57.7105C32.4409 57.1074 32.3561 56.4846 32.3561 55.842C32.3561 54.9708 32.4783 54.1706 32.7227 53.4413C32.9237 52.8382 33.2293 52.377 33.6392 52.0577C34.0492 51.7344 34.4828 51.5728 34.9401 51.5728C35.4052 51.5728 35.8389 51.7325 36.241 52.0518C36.647 52.3671 36.9446 52.7929 37.1338 53.329C37.3979 54.0661 37.53 54.8723 37.53 55.7474ZM35.7088 55.7356C35.7088 54.3322 35.7009 53.5143 35.6851 53.2817C35.6457 52.7337 35.5511 52.3632 35.4013 52.17C35.3028 52.0439 35.1431 51.9808 34.9223 51.9808C34.7528 51.9808 34.6188 52.0281 34.5203 52.1227C34.3744 52.2607 34.2759 52.5051 34.2246 52.8559C34.1734 53.2028 34.1477 54.4189 34.1477 56.5043C34.1477 57.6396 34.1872 58.4004 34.266 58.7867C34.3251 59.0666 34.4099 59.2538 34.5203 59.3484C34.6306 59.443 34.7765 59.4904 34.9578 59.4904C35.1549 59.4904 35.3028 59.4273 35.4013 59.3011C35.5669 59.0804 35.6615 58.7394 35.6851 58.2782L35.7088 55.7356Z" fill="white"/>
<path d="M39.9957 54.0681C40.2677 54.0681 40.4983 54.1647 40.6875 54.3578C40.8807 54.5471 40.9773 54.7777 40.9773 55.0497C40.9773 55.3217 40.8807 55.5542 40.6875 55.7474C40.4983 55.9366 40.2677 56.0312 39.9957 56.0312C39.7237 56.0312 39.4911 55.9366 39.298 55.7474C39.1088 55.5542 39.0142 55.3217 39.0142 55.0497C39.0142 54.7777 39.1088 54.5471 39.298 54.3578C39.4911 54.1647 39.7237 54.0681 39.9957 54.0681ZM39.9898 57.9352C40.2657 57.9352 40.4983 58.0318 40.6875 58.225C40.8807 58.4181 40.9773 58.6507 40.9773 58.9227C40.9773 59.1947 40.8807 59.4273 40.6875 59.6204C40.4944 59.8097 40.2618 59.9043 39.9898 59.9043C39.7178 59.9043 39.4852 59.8097 39.2921 59.6204C39.1029 59.4273 39.0082 59.1947 39.0082 58.9227C39.0082 58.6507 39.1029 58.4181 39.2921 58.225C39.4852 58.0318 39.7178 57.9352 39.9898 57.9352Z" fill="white"/>
<path d="M47.0204 59.7564H42.3018V59.6264C43.7485 57.9037 44.6256 56.7447 44.9331 56.1495C45.2445 55.5542 45.4002 54.9728 45.4002 54.4052C45.4002 53.9912 45.2721 53.6483 45.0159 53.3763C44.7596 53.1003 44.4463 52.9624 44.0757 52.9624C43.4686 52.9624 42.9976 53.2659 42.6625 53.873L42.4437 53.7961C42.6566 53.0392 42.9798 52.4795 43.4134 52.1168C43.8471 51.7541 44.3477 51.5728 44.9154 51.5728C45.3214 51.5728 45.6919 51.6674 46.027 51.8566C46.3621 52.0459 46.6242 52.306 46.8134 52.6372C47.0026 52.9643 47.0973 53.2718 47.0973 53.5596C47.0973 54.0839 46.9514 54.6161 46.6597 55.1561C46.2615 55.8854 45.3923 56.9024 44.0521 58.2072H45.7846C46.2103 58.2072 46.4862 58.1895 46.6124 58.154C46.7425 58.1185 46.8489 58.0594 46.9317 57.9766C47.0145 57.8899 47.1229 57.7105 47.2569 57.4385H47.4698L47.0204 59.7564Z" fill="white"/>
<path d="M53.6725 55.7474C53.6725 56.5476 53.5602 57.2947 53.3355 57.9884C53.2015 58.4142 53.0201 58.7631 52.7915 59.035C52.5668 59.307 52.3106 59.5239 52.0228 59.6855C51.735 59.8432 51.4216 59.922 51.0826 59.922C50.6963 59.922 50.3474 59.8235 50.036 59.6264C49.7246 59.4292 49.4487 59.1474 49.2082 58.7808C49.0348 58.5127 48.883 58.156 48.7529 57.7105C48.5834 57.1074 48.4986 56.4846 48.4986 55.842C48.4986 54.9708 48.6208 54.1706 48.8652 53.4413C49.0663 52.8382 49.3718 52.377 49.7818 52.0577C50.1917 51.7344 50.6254 51.5728 51.0826 51.5728C51.5478 51.5728 51.9814 51.7325 52.3835 52.0518C52.7895 52.3671 53.0871 52.7929 53.2764 53.329C53.5405 54.0661 53.6725 54.8723 53.6725 55.7474ZM51.8513 55.7356C51.8513 54.3322 51.8434 53.5143 51.8277 53.2817C51.7882 52.7337 51.6936 52.3632 51.5438 52.17C51.4453 52.0439 51.2856 51.9808 51.0649 51.9808C50.8954 51.9808 50.7614 52.0281 50.6628 52.1227C50.517 52.2607 50.4184 52.5051 50.3672 52.8559C50.3159 53.2028 50.2903 54.4189 50.2903 56.5043C50.2903 57.6396 50.3297 58.4004 50.4085 58.7867C50.4677 59.0666 50.5524 59.2538 50.6628 59.3484C50.7732 59.443 50.919 59.4904 51.1004 59.4904C51.2975 59.4904 51.4453 59.4273 51.5438 59.3011C51.7094 59.0804 51.804 58.7394 51.8277 58.2782L51.8513 55.7356Z" fill="white"/>
<path d="M58.06 51.5728V58.1304C58.06 58.6231 58.0817 58.9385 58.125 59.0764C58.1684 59.2105 58.2591 59.3208 58.397 59.4076C58.535 59.4943 58.7558 59.5377 59.0593 59.5377H59.2426V59.7564H55.0207V59.5377H55.2336C55.5765 59.5377 55.8209 59.4982 55.9668 59.4194C56.1126 59.3406 56.2112 59.2322 56.2624 59.0942C56.3137 58.9562 56.3393 58.6349 56.3393 58.1304V53.9735C56.3393 53.603 56.3216 53.3723 56.2861 53.2817C56.2506 53.1871 56.1836 53.1082 56.085 53.0452C55.9904 52.9781 55.8801 52.9446 55.7539 52.9446C55.5529 52.9446 55.3085 53.0077 55.0207 53.1339L54.9143 52.921L57.8649 51.5728H58.06Z" fill="white"/>
<path d="M62.0158 51.7384H65.7706L65.1734 53.2639H62.0158L61.7142 54.0622C63.0742 54.1134 64.1208 54.4525 64.854 55.0792C65.4572 55.5956 65.7587 56.2382 65.7587 57.0069C65.7587 57.4996 65.6188 57.9825 65.3389 58.4556C65.059 58.9247 64.6648 59.2873 64.1563 59.5436C63.6478 59.7959 63.09 59.922 62.4829 59.922C61.8286 59.922 61.3259 59.7998 60.9751 59.5554C60.7307 59.3819 60.6085 59.1848 60.6085 58.9641C60.6085 58.7946 60.6716 58.6448 60.7977 58.5147C60.9278 58.3846 61.0776 58.3196 61.2471 58.3196C61.4008 58.3196 61.5566 58.3511 61.7142 58.4142C61.8719 58.4773 62.1419 58.6428 62.5243 58.9109C62.7648 59.0764 62.9717 59.1908 63.1452 59.2538C63.2674 59.3011 63.4054 59.3248 63.5591 59.3248C63.8823 59.3248 64.1563 59.2065 64.381 58.97C64.6096 58.7335 64.724 58.4497 64.724 58.1185C64.724 57.4247 64.3771 56.861 63.6833 56.4274C62.9895 55.9938 62.1143 55.777 61.0579 55.777C60.9515 55.777 60.7918 55.7789 60.5789 55.7829L62.0158 51.7384Z" fill="white"/>
</g>
<defs>
<filter id="filter0_d_141_260" x="0.49707" y="0.00531006" width="73.2734" height="71.9167" filterUnits="userSpaceOnUse" color-interpolation-filters="sRGB">
<feFlood flood-opacity="0" result="BackgroundImageFix"/>
<feColorMatrix in="SourceAlpha" type="matrix" values="0 0 0 0 0 0 0 0 0 0 0 0 0 0 0 0 0 0 127 0" result="hardAlpha"/>
<feOffset dy="4"/>
<feGaussianBlur stdDeviation="4"/>
<feComposite in2="hardAlpha" operator="out"/>
<feColorMatrix type="matrix" values="0 0 0 0 0 0 0 0 0 0 0 0 0 0 0 0 0 0 0.5 0"/>
<feBlend mode="normal" in2="BackgroundImageFix" result="effect1_dropShadow_141_260"/>
<feBlend mode="normal" in="SourceGraphic" in2="effect1_dropShadow_141_260" result="shape"/>
</filter>
</defs>
</svg>
