<svg width="74" height="72" viewBox="0 0 74 72" fill="none" xmlns="http://www.w3.org/2000/svg">
<g filter="url(#filter0_d_141_261)">
<path d="M62.646 21.0048C62.1414 19.6677 61.1071 18.4819 59.8456 17.6242C56.1874 15.3031 50.6118 15.1265 46.8527 17.2457C44.8092 18.3053 43.4468 20.3741 43.0179 22.4933C42.2611 26.0001 42.4629 30.1629 45.1624 32.7867C48.316 35.5367 52.8824 36.1674 56.9695 35.0321C57.1713 35.0069 57.7768 34.8303 58.2057 34.6284L58.3319 34.578C59.5933 34.0482 60.8043 33.1904 61.7126 32.0299C63.7813 28.9772 63.9075 24.436 62.646 21.0048ZM56.0108 28.8762C55.8594 29.5322 55.4306 30.2386 54.7241 30.4909C53.5888 30.9955 52.0751 30.8441 51.0407 30.2638C50.1577 29.6583 50.0568 28.624 49.9559 27.6653C49.8802 25.7731 49.7288 23.7548 50.2586 22.014C50.6875 20.9291 51.8228 20.6516 52.8824 20.5759C53.9673 20.5759 55.0521 20.7525 55.7333 21.6355C56.1622 22.2663 56.137 23.0988 56.2127 23.8557C56.1622 25.3947 56.2883 27.2868 56.0108 28.8762Z" fill="white"/>
<path d="M22.7087 30.5918C21.7752 30.5413 20.7408 30.617 19.8326 30.5161L19.8578 20.8282L19.9083 20.7525L22.6834 20.7273C22.7087 19.1631 22.7339 17.4728 22.6582 16.0347L12.0621 16.0095L10.3213 16.0347C10.2961 17.498 10.2961 19.2136 10.3213 20.7021C11.28 20.7273 12.1882 20.7021 13.0965 20.7778V30.1629L13.0712 30.5413L10.2961 30.5918C10.2456 32.1308 10.2456 33.6193 10.2961 35.1582H22.6834V30.5918H22.7087Z" fill="white"/>
<path d="M53.9168 37.227C52.7311 38.9173 51.2426 40.532 49.6279 41.8187C49.5774 41.8943 49.4009 41.8691 49.3504 41.7934C48.644 41.3645 47.8871 40.9861 47.2059 40.5572C48.1142 39.4724 48.972 38.4128 49.6531 37.2018H48.7701C48.0637 38.2362 47.3321 39.2958 46.3986 40.204C45.1624 39.6994 44.0271 39.2705 42.7656 38.9426L42.6143 38.8417C42.8161 38.2866 43.1693 37.7568 43.2955 37.2018H42.5386L41.7817 38.6903C40.1166 38.3371 38.3001 38.1352 36.6098 38.0343C36.5341 37.782 36.635 37.4288 36.5341 37.2018H35.8025C35.752 37.5298 35.8782 37.782 35.7268 38.0596C33.986 38.1352 32.2957 38.3371 30.6558 38.6651L29.8989 37.2018C29.6214 37.2018 29.3186 37.1513 29.1168 37.227L29.8232 38.8669L29.7475 38.9426C28.4861 39.2958 27.2499 39.7499 26.0389 40.2545L25.938 40.204C25.1559 39.3462 24.399 38.4128 23.7683 37.4793C23.6169 36.9999 23.0619 37.2775 22.7591 37.227C23.4403 38.438 24.3233 39.5228 25.2316 40.6329C24.4747 41.087 23.7178 41.5664 22.9357 41.9196C21.2454 40.6581 19.6812 38.993 18.4954 37.2522C18.1675 37.2018 17.9404 37.227 17.5872 37.2522C19.6055 40.4058 22.7591 43.1558 26.0389 44.7957C26.0389 44.7957 26.0389 44.7704 26.0641 44.7704C26.0893 44.7704 26.1398 44.8209 26.0893 44.8461C28.3095 45.931 30.681 46.6878 33.1787 47.041C41.8069 48.1763 50.0568 44.4929 54.8251 37.2522C54.5475 37.2018 54.1943 37.2018 53.9168 37.227ZM42.1854 39.6994L42.2611 39.649C43.4721 39.9265 44.6326 40.3049 45.6922 40.8347C44.784 41.8439 43.6487 42.7521 42.5638 43.4838C41.9079 43.8622 41.2771 44.2911 40.596 44.6191L39.385 44.0893L39.4607 43.8874C40.495 42.5503 41.4033 41.1627 42.1854 39.6994ZM36.6603 38.8669C38.2749 38.8921 39.8643 39.0687 41.3528 39.4219L41.3781 39.4976C40.596 40.9861 39.612 42.4242 38.5272 43.7865C38.0478 43.837 37.5937 43.6604 37.1144 43.6351L36.635 43.5847C36.5846 41.9448 36.5593 40.5068 36.6603 38.8669ZM31.236 39.3715C32.6993 39.0939 34.213 38.8669 35.7772 38.8669L35.8025 43.5342C35.2222 43.6604 34.5663 43.6604 34.0112 43.8117C32.8507 42.4494 31.892 40.9861 31.0847 39.4724L31.236 39.3715ZM26.6948 40.86C27.8049 40.3302 28.9402 39.9517 30.126 39.649L30.2521 39.6742C31.0594 41.1879 32.0686 42.626 33.0777 44.064C32.6741 44.2911 32.1947 44.4172 31.8163 44.6443C29.9494 43.7361 28.1833 42.4494 26.6948 40.9356V40.86ZM30.3278 45.603C27.9563 44.9975 25.7614 43.9379 23.7431 42.4998V42.4242C24.4242 42.0205 25.1054 41.5664 25.8118 41.2636C27.4265 42.8531 29.0664 44.0388 30.8828 45.1489C30.7567 45.3255 30.5296 45.4769 30.3278 45.603ZM40.7473 45.9562C37.7703 46.5869 34.4401 46.6122 31.4631 45.9057C31.4126 45.7796 31.6145 45.7291 31.6902 45.6535C34.314 43.9631 38.3758 43.9631 40.9492 45.7796C41.0249 45.9562 40.7978 45.9057 40.7473 45.9562ZM43.4468 45.1741L42.1349 45.5778C41.9079 45.4768 41.706 45.3003 41.5042 45.1236L41.5547 45.048C43.3459 43.9883 44.9858 42.7269 46.5248 41.2132C47.2816 41.5159 48.0133 41.9448 48.6944 42.3989C47.1302 43.6604 45.3138 44.4929 43.4468 45.1741Z" fill="white"/>
<path d="M18.3945 13.8903C19.0757 12.9568 19.8326 12.0486 20.6651 11.1656C21.3968 10.4844 22.0779 9.8032 22.86 9.32385C23.5917 9.8032 24.399 10.1816 25.1054 10.6358C24.2224 11.6954 23.3394 12.7802 22.6834 13.9407C22.8853 14.0164 23.2385 13.9912 23.516 13.9407C24.2224 12.9316 24.9793 11.8972 25.8875 10.989C27.0985 11.4431 28.2843 11.8972 29.5205 12.2252L29.6214 12.3261L28.915 13.9155C29.2177 13.966 29.4196 13.9407 29.7223 13.9155C29.9746 13.4362 30.1764 12.9316 30.4539 12.4522C32.0938 12.8054 33.8094 13.0073 35.5502 13.0577C35.7772 13.2596 35.6006 13.6632 35.7016 13.9155H36.4584C36.5341 13.638 36.4332 13.3352 36.5341 13.083C38.174 13.0073 39.8896 12.8307 41.4537 12.4522L41.5799 12.4775L42.3368 13.9155C42.589 13.9155 42.917 13.966 43.1189 13.8651L42.4124 12.2756L42.4629 12.2252C43.7496 11.8972 44.9606 11.3926 46.1968 10.9133C47.0798 11.8215 47.8871 12.9064 48.6187 13.9407C48.9215 13.9407 49.2242 13.966 49.4513 13.8903C49.1233 13.2848 48.6944 12.6793 48.2403 12.1495C47.8619 11.6197 47.4835 11.1656 47.0041 10.661V10.5096L48.972 9.37431L49.2495 9.27339C50.965 10.5601 52.4788 12.1495 53.6898 13.8903C54.0177 13.8903 54.3205 14.0164 54.598 13.8651C50.8389 8.23901 44.6074 4.60605 37.8965 4.07624L37.8712 4.1267L37.8208 4.07624C37.0639 4.00055 36.1304 3.97532 35.3231 4.05101C35.0204 4.02578 34.6419 4.05101 34.2887 4.07624C27.5526 4.60605 21.3211 8.0624 17.4611 13.9407C17.789 13.8903 18.117 13.9912 18.3945 13.8903ZM30.0755 11.4431L29.9746 11.4683C28.8141 11.1656 27.704 10.8124 26.6192 10.333L26.6696 10.1564C28.2086 8.69312 29.8485 7.48214 31.6397 6.54867C32.0686 6.72527 32.4723 6.85142 32.9011 7.05325L32.8255 7.28031C31.7658 8.61744 30.9081 10.0303 30.0755 11.4431ZM35.6763 12.1999C34.8942 12.3009 34.1878 12.1747 33.4057 12.1243C32.6489 12.0233 31.6902 11.9224 30.9333 11.6701C31.7406 10.1564 32.6993 8.69313 33.8598 7.33076L35.6511 7.58305C35.7268 9.0211 35.6763 10.6862 35.6763 12.1999ZM36.5341 12.2252C36.4837 10.7619 36.5089 9.12202 36.5341 7.60828C37.0891 7.5326 37.7199 7.43168 38.2749 7.356C39.3597 8.74358 40.4446 10.1564 41.1762 11.6701C39.6625 12.0233 38.0983 12.2252 36.5341 12.2252ZM45.5156 10.2825C44.4055 10.7619 43.2955 11.1908 42.0845 11.4431C41.2015 9.9798 40.268 8.51652 39.1831 7.10371C39.5868 6.87665 40.0662 6.72527 40.4698 6.49821C42.3115 7.40645 44.0776 8.71836 45.5661 10.1816L45.5156 10.2825ZM41.9079 5.56474C44.2794 6.17024 46.4995 7.22985 48.5178 8.6679L48.4674 8.76881L46.5248 9.85365H46.3734C44.8849 8.36515 43.1441 7.07848 41.3781 6.04409C41.4285 5.84226 41.706 5.69089 41.9079 5.56474ZM40.7726 5.28723V5.33768C38.3254 7.10371 34.3644 7.28031 31.7658 5.64043C31.6145 5.53951 31.337 5.46383 31.3117 5.28723C34.314 4.60605 37.8208 4.55559 40.7726 5.28723ZM23.6421 8.71835C25.4082 7.43168 27.376 6.44776 29.47 5.7918C29.5457 5.71612 29.6214 5.6152 29.7223 5.6152V5.66566C29.9494 5.71612 30.126 5.46383 30.3026 5.64043C30.4792 5.7918 30.681 5.89272 30.8071 6.01886C29.0664 7.10371 27.3508 8.36515 25.7866 9.90411C25.0297 9.62659 24.3233 9.22293 23.6421 8.74358V8.71835Z" fill="white"/>
<path d="M35.7016 30.8189C33.0525 31.5505 30.2017 30.9955 28.2843 29.0024C28.0572 28.7249 27.9311 28.3969 27.704 28.1194L23.9197 28.1446C23.8692 30.39 23.844 32.9381 23.9197 35.1582L28.1329 35.133L28.1833 33.7959C28.6627 34.0229 29.142 34.3005 29.6214 34.5275C32.5479 35.7385 36.307 36.016 39.2084 34.5275C41.3276 33.367 42.4377 31.1216 42.1349 28.7249C41.8322 26.3786 39.5868 24.2594 37.291 23.6791L30.4792 21.7112L29.9746 21.4589C29.7475 21.2571 29.5962 21.0301 29.6718 20.7273C30.2017 19.8191 31.4379 20.0966 32.3713 20.1218C34.3392 20.3993 36.3575 21.0553 37.518 22.8465C38.7543 22.8465 40.1923 22.8718 41.5294 22.8213C41.5799 20.5507 41.5042 18.5829 41.479 16.287C40.2175 16.2618 38.6786 16.2618 37.3919 16.3123C37.3414 16.6402 37.4424 17.1196 37.3162 17.4476L36.0295 16.7664C32.9264 15.4797 28.6122 15.3283 25.7866 17.3466C23.9701 18.6585 23.3899 21.0553 23.8692 23.1493C24.2224 25.1424 26.1398 26.6056 27.9815 27.2868C30.4792 28.1698 33.103 28.8006 35.6259 29.6583C35.8782 29.7593 36.2061 30.0115 36.1557 30.3143C36.1557 30.5666 35.8782 30.6927 35.7016 30.8189Z" fill="white"/>
<path d="M9.92905 51.7384H13.6838L13.0866 53.2639H9.92905L9.62749 54.0622C10.9875 54.1134 12.0341 54.4525 12.7673 55.0792C13.3704 55.5956 13.672 56.2382 13.672 57.0069C13.672 57.4996 13.5321 57.9825 13.2522 58.4556C12.9723 58.9247 12.5781 59.2873 12.0696 59.5436C11.561 59.7959 11.0033 59.922 10.3962 59.922C9.74181 59.922 9.2392 59.7998 8.88836 59.5554C8.64396 59.3819 8.52175 59.1848 8.52175 58.9641C8.52175 58.7946 8.58482 58.6448 8.71097 58.5147C8.84106 58.3846 8.99085 58.3196 9.16036 58.3196C9.3141 58.3196 9.46981 58.3511 9.62749 58.4142C9.78517 58.4773 10.0552 58.6428 10.4376 58.9109C10.678 59.0764 10.885 59.1908 11.0584 59.2538C11.1806 59.3011 11.3186 59.3248 11.4724 59.3248C11.7956 59.3248 12.0696 59.2065 12.2943 58.97C12.5229 58.7335 12.6372 58.4497 12.6372 58.1185C12.6372 57.4247 12.2903 56.861 11.5965 56.4274C10.9027 55.9938 10.0276 55.777 8.97114 55.777C8.86471 55.777 8.70506 55.7789 8.49219 55.7829L9.92905 51.7384Z" fill="white"/>
<path d="M19.7506 55.7474C19.7506 56.5476 19.6382 57.2947 19.4135 57.9884C19.2795 58.4142 19.0982 58.7631 18.8695 59.035C18.6448 59.307 18.3886 59.5239 18.1009 59.6855C17.8131 59.8432 17.4997 59.922 17.1607 59.922C16.7744 59.922 16.4255 59.8235 16.1141 59.6264C15.8027 59.4292 15.5267 59.1474 15.2863 58.7808C15.1128 58.5127 14.961 58.156 14.8309 57.7105C14.6614 57.1074 14.5767 56.4846 14.5767 55.842C14.5767 54.9708 14.6989 54.1706 14.9433 53.4413C15.1443 52.8382 15.4498 52.377 15.8598 52.0577C16.2698 51.7344 16.7034 51.5728 17.1607 51.5728C17.6258 51.5728 18.0595 51.7325 18.4615 52.0518C18.8676 52.3671 19.1652 52.7929 19.3544 53.329C19.6185 54.0661 19.7506 54.8723 19.7506 55.7474ZM17.9294 55.7356C17.9294 54.3322 17.9215 53.5143 17.9057 53.2817C17.8663 52.7337 17.7717 52.3632 17.6219 52.17C17.5233 52.0439 17.3637 51.9808 17.1429 51.9808C16.9734 51.9808 16.8394 52.0281 16.7409 52.1227C16.595 52.2607 16.4965 52.5051 16.4452 52.8559C16.394 53.2028 16.3683 54.4189 16.3683 56.5043C16.3683 57.6396 16.4078 58.4004 16.4866 58.7867C16.5457 59.0666 16.6305 59.2538 16.7409 59.3484C16.8512 59.443 16.9971 59.4904 17.1784 59.4904C17.3755 59.4904 17.5233 59.4273 17.6219 59.3011C17.7875 59.0804 17.8821 58.7394 17.9057 58.2782L17.9294 55.7356Z" fill="white"/>
<path d="M25.8055 55.7474C25.8055 56.5476 25.6932 57.2947 25.4685 57.9884C25.3344 58.4142 25.1531 58.7631 24.9245 59.035C24.6998 59.307 24.4436 59.5239 24.1558 59.6855C23.868 59.8432 23.5546 59.922 23.2156 59.922C22.8293 59.922 22.4804 59.8235 22.169 59.6264C21.8576 59.4292 21.5816 59.1474 21.3412 58.7808C21.1677 58.5127 21.016 58.156 20.8859 57.7105C20.7164 57.1074 20.6316 56.4846 20.6316 55.842C20.6316 54.9708 20.7538 54.1706 20.9982 53.4413C21.1993 52.8382 21.5048 52.377 21.9148 52.0577C22.3247 51.7344 22.7583 51.5728 23.2156 51.5728C23.6808 51.5728 24.1144 51.7325 24.5165 52.0518C24.9225 52.3671 25.2201 52.7929 25.4093 53.329C25.6735 54.0661 25.8055 54.8723 25.8055 55.7474ZM23.9843 55.7356C23.9843 54.3322 23.9764 53.5143 23.9607 53.2817C23.9212 52.7337 23.8266 52.3632 23.6768 52.17C23.5783 52.0439 23.4186 51.9808 23.1979 51.9808C23.0284 51.9808 22.8943 52.0281 22.7958 52.1227C22.6499 52.2607 22.5514 52.5051 22.5001 52.8559C22.4489 53.2028 22.4233 54.4189 22.4233 56.5043C22.4233 57.6396 22.4627 58.4004 22.5415 58.7867C22.6007 59.0666 22.6854 59.2538 22.7958 59.3484C22.9062 59.443 23.052 59.4904 23.2334 59.4904C23.4305 59.4904 23.5783 59.4273 23.6768 59.3011C23.8424 59.0804 23.937 58.7394 23.9607 58.2782L23.9843 55.7356Z" fill="white"/>
<path d="M31.8605 55.7474C31.8605 56.5476 31.7481 57.2947 31.5234 57.9884C31.3894 58.4142 31.2081 58.7631 30.9794 59.035C30.7547 59.307 30.4985 59.5239 30.2107 59.6855C29.923 59.8432 29.6096 59.922 29.2706 59.922C28.8842 59.922 28.5354 59.8235 28.2239 59.6264C27.9125 59.4292 27.6366 59.1474 27.3961 58.7808C27.2227 58.5127 27.0709 58.156 26.9408 57.7105C26.7713 57.1074 26.6866 56.4846 26.6866 55.842C26.6866 54.9708 26.8088 54.1706 27.0532 53.4413C27.2542 52.8382 27.5597 52.377 27.9697 52.0577C28.3797 51.7344 28.8133 51.5728 29.2706 51.5728C29.7357 51.5728 30.1693 51.7325 30.5714 52.0518C30.9774 52.3671 31.2751 52.7929 31.4643 53.329C31.7284 54.0661 31.8605 54.8723 31.8605 55.7474ZM30.0392 55.7356C30.0392 54.3322 30.0314 53.5143 30.0156 53.2817C29.9762 52.7337 29.8816 52.3632 29.7318 52.17C29.6332 52.0439 29.4736 51.9808 29.2528 51.9808C29.0833 51.9808 28.9493 52.0281 28.8507 52.1227C28.7049 52.2607 28.6063 52.5051 28.5551 52.8559C28.5038 53.2028 28.4782 54.4189 28.4782 56.5043C28.4782 57.6396 28.5176 58.4004 28.5965 58.7867C28.6556 59.0666 28.7404 59.2538 28.8507 59.3484C28.9611 59.443 29.107 59.4904 29.2883 59.4904C29.4854 59.4904 29.6332 59.4273 29.7318 59.3011C29.8973 59.0804 29.9919 58.7394 30.0156 58.2782L30.0392 55.7356Z" fill="white"/>
<path d="M36.2479 51.5728V58.1304C36.2479 58.6231 36.2696 58.9385 36.313 59.0764C36.3563 59.2105 36.447 59.3208 36.585 59.4076C36.7229 59.4943 36.9437 59.5377 37.2472 59.5377H37.4305V59.7564H33.2086V59.5377H33.4215C33.7645 59.5377 34.0089 59.4982 34.1547 59.4194C34.3006 59.3406 34.3991 59.2322 34.4504 59.0942C34.5016 58.9562 34.5272 58.6349 34.5272 58.1304V53.9735C34.5272 53.603 34.5095 53.3723 34.474 53.2817C34.4385 53.1871 34.3715 53.1082 34.273 53.0452C34.1784 52.9781 34.068 52.9446 33.9418 52.9446C33.7408 52.9446 33.4964 53.0077 33.2086 53.1339L33.1022 52.921L36.0528 51.5728H36.2479Z" fill="white"/>
<path d="M40.3811 54.0681C40.6531 54.0681 40.8837 54.1647 41.0729 54.3578C41.2661 54.5471 41.3627 54.7777 41.3627 55.0497C41.3627 55.3217 41.2661 55.5542 41.0729 55.7474C40.8837 55.9366 40.6531 56.0312 40.3811 56.0312C40.1091 56.0312 39.8765 55.9366 39.6834 55.7474C39.4942 55.5542 39.3996 55.3217 39.3996 55.0497C39.3996 54.7777 39.4942 54.5471 39.6834 54.3578C39.8765 54.1647 40.1091 54.0681 40.3811 54.0681ZM40.3752 57.9352C40.6511 57.9352 40.8837 58.0318 41.0729 58.225C41.2661 58.4181 41.3627 58.6507 41.3627 58.9227C41.3627 59.1947 41.2661 59.4273 41.0729 59.6204C40.8798 59.8097 40.6472 59.9043 40.3752 59.9043C40.1032 59.9043 39.8706 59.8097 39.6775 59.6204C39.4883 59.4273 39.3936 59.1947 39.3936 58.9227C39.3936 58.6507 39.4883 58.4181 39.6775 58.225C39.8706 58.0318 40.1032 57.9352 40.3752 57.9352Z" fill="white"/>
<path d="M47.4058 59.7564H42.6872V59.6264C44.1339 57.9037 45.011 56.7447 45.3185 56.1495C45.6299 55.5542 45.7856 54.9728 45.7856 54.4052C45.7856 53.9912 45.6575 53.6483 45.4013 53.3763C45.1451 53.1003 44.8317 52.9624 44.4611 52.9624C43.854 52.9624 43.383 53.2659 43.0479 53.873L42.8291 53.7961C43.042 53.0392 43.3652 52.4795 43.7989 52.1168C44.2325 51.7541 44.7331 51.5728 45.3008 51.5728C45.7068 51.5728 46.0773 51.6674 46.4124 51.8566C46.7475 52.0459 47.0096 52.306 47.1988 52.6372C47.3881 52.9643 47.4827 53.2718 47.4827 53.5596C47.4827 54.0839 47.3368 54.6161 47.0451 55.1561C46.647 55.8854 45.7777 56.9024 44.4375 58.2072H46.17C46.5957 58.2072 46.8717 58.1895 46.9978 58.154C47.1279 58.1185 47.2343 58.0594 47.3171 57.9766C47.3999 57.8899 47.5083 57.7105 47.6423 57.4385H47.8552L47.4058 59.7564Z" fill="white"/>
<path d="M54.0579 55.7474C54.0579 56.5476 53.9456 57.2947 53.7209 57.9884C53.5869 58.4142 53.4055 58.7631 53.1769 59.035C52.9522 59.307 52.696 59.5239 52.4082 59.6855C52.1204 59.8432 51.8071 59.922 51.468 59.922C51.0817 59.922 50.7329 59.8235 50.4214 59.6264C50.11 59.4292 49.8341 59.1474 49.5936 58.7808C49.4202 58.5127 49.2684 58.156 49.1383 57.7105C48.9688 57.1074 48.884 56.4846 48.884 55.842C48.884 54.9708 49.0063 54.1706 49.2507 53.4413C49.4517 52.8382 49.7572 52.377 50.1672 52.0577C50.5771 51.7344 51.0108 51.5728 51.468 51.5728C51.9332 51.5728 52.3668 51.7325 52.7689 52.0518C53.1749 52.3671 53.4726 52.7929 53.6618 53.329C53.9259 54.0661 54.0579 54.8723 54.0579 55.7474ZM52.2367 55.7356C52.2367 54.3322 52.2289 53.5143 52.2131 53.2817C52.1737 52.7337 52.0791 52.3632 51.9293 52.17C51.8307 52.0439 51.6711 51.9808 51.4503 51.9808C51.2808 51.9808 51.1468 52.0281 51.0482 52.1227C50.9024 52.2607 50.8038 52.5051 50.7526 52.8559C50.7013 53.2028 50.6757 54.4189 50.6757 56.5043C50.6757 57.6396 50.7151 58.4004 50.794 58.7867C50.8531 59.0666 50.9378 59.2538 51.0482 59.3484C51.1586 59.443 51.3044 59.4904 51.4858 59.4904C51.6829 59.4904 51.8307 59.4273 51.9293 59.3011C52.0948 59.0804 52.1894 58.7394 52.2131 58.2782L52.2367 55.7356Z" fill="white"/>
<path d="M58.4454 51.5728V58.1304C58.4454 58.6231 58.4671 58.9385 58.5105 59.0764C58.5538 59.2105 58.6445 59.3208 58.7825 59.4076C58.9204 59.4943 59.1412 59.5377 59.4447 59.5377H59.628V59.7564H55.4061V59.5377H55.619C55.9619 59.5377 56.2063 59.4982 56.3522 59.4194C56.4981 59.3406 56.5966 59.2322 56.6479 59.0942C56.6991 58.9562 56.7247 58.6349 56.7247 58.1304V53.9735C56.7247 53.603 56.707 53.3723 56.6715 53.2817C56.636 53.1871 56.569 53.1082 56.4705 53.0452C56.3759 52.9781 56.2655 52.9446 56.1393 52.9446C55.9383 52.9446 55.6939 53.0077 55.4061 53.1339L55.2997 52.921L58.2503 51.5728H58.4454Z" fill="white"/>
<path d="M63.8263 51.5728V58.1304C63.8263 58.6231 63.8479 58.9385 63.8913 59.0764C63.9347 59.2105 64.0253 59.3208 64.1633 59.4076C64.3013 59.4943 64.522 59.5377 64.8256 59.5377H65.0089V59.7564H60.787V59.5377H60.9998C61.3428 59.5377 61.5872 59.4982 61.7331 59.4194C61.8789 59.3406 61.9775 59.2322 62.0287 59.0942C62.0799 58.9562 62.1056 58.6349 62.1056 58.1304V53.9735C62.1056 53.603 62.0878 53.3723 62.0524 53.2817C62.0169 53.1871 61.9499 53.1082 61.8513 53.0452C61.7567 52.9781 61.6463 52.9446 61.5202 52.9446C61.3191 52.9446 61.0747 53.0077 60.787 53.1339L60.6805 52.921L63.6311 51.5728H63.8263Z" fill="white"/>
</g>
<defs>
<filter id="filter0_d_141_261" x="0.492188" y="0.00531006" width="72.5166" height="71.9167" filterUnits="userSpaceOnUse" color-interpolation-filters="sRGB">
<feFlood flood-opacity="0" result="BackgroundImageFix"/>
<feColorMatrix in="SourceAlpha" type="matrix" values="0 0 0 0 0 0 0 0 0 0 0 0 0 0 0 0 0 0 127 0" result="hardAlpha"/>
<feOffset dy="4"/>
<feGaussianBlur stdDeviation="4"/>
<feComposite in2="hardAlpha" operator="out"/>
<feColorMatrix type="matrix" values="0 0 0 0 0 0 0 0 0 0 0 0 0 0 0 0 0 0 0.5 0"/>
<feBlend mode="normal" in2="BackgroundImageFix" result="effect1_dropShadow_141_261"/>
<feBlend mode="normal" in="SourceGraphic" in2="effect1_dropShadow_141_261" result="shape"/>
</filter>
</defs>
</svg>
