<svg width="30" height="34" viewBox="0 0 30 34" fill="none" xmlns="http://www.w3.org/2000/svg">
<path d="M13.3333 26.6665V29H5.01423V27.0255L8.86411 22.6099C9.20413 22.1851 9.47834 21.8052 9.68674 21.4701C9.89513 21.1291 10.0459 20.8209 10.1392 20.5457C10.2379 20.2705 10.2873 20.0222 10.2873 19.8008C10.2873 19.4239 10.2352 19.1097 10.131 18.8584C10.0322 18.6012 9.88417 18.4067 9.68674 18.2751C9.49479 18.1435 9.25623 18.0776 8.97105 18.0776C8.68588 18.0776 8.43635 18.1674 8.22246 18.3469C8.00858 18.5264 7.84132 18.7717 7.72066 19.0828C7.6055 19.3939 7.54791 19.744 7.54791 20.1329H4.76744C4.76744 19.3311 4.94568 18.5982 5.30215 17.934C5.6641 17.2699 6.1659 16.7404 6.80755 16.3455C7.4492 15.9446 8.1923 15.7442 9.03686 15.7442C9.91981 15.7442 10.6602 15.8938 11.2579 16.1929C11.8557 16.4921 12.3054 16.9259 12.6071 17.4943C12.9142 18.0567 13.0677 18.7358 13.0677 19.5316C13.0677 19.9863 13.0019 20.4231 12.8703 20.8419C12.7387 21.2607 12.5495 21.6765 12.3027 22.0894C12.0559 22.4962 11.7543 22.9151 11.3978 23.3459C11.0468 23.7767 10.6465 24.2344 10.1968 24.719L8.65023 26.6665H13.3333Z" fill="#DE1C24"/>
<path d="M25 29V26.6665H20.2781L21.8247 24.719C22.2744 24.2344 22.6747 23.7767 23.0257 23.3459C23.3822 22.9151 23.6838 22.4962 23.9306 22.0894C24.1774 21.6765 24.3666 21.2607 24.4982 20.8419C24.6298 20.4231 24.6956 19.9863 24.6956 19.5316C24.6956 18.7358 24.5421 18.0567 24.235 17.4943C23.9333 16.9259 23.4836 16.4921 22.8859 16.1929C22.2881 15.8938 21.5477 15.7442 20.6648 15.7442C19.8202 15.7442 19.0771 15.9446 18.4355 16.3455C17.7938 16.7404 17.292 17.2699 16.9301 17.934C16.5736 18.5982 16.3953 19.3311 16.3953 20.1329H19.1758C19.1758 19.744 19.2334 19.3939 19.3486 19.0828C19.4692 18.7717 19.6365 18.5264 19.8504 18.3469C20.0643 18.1674 20.3138 18.0776 20.599 18.0776C20.8841 18.0776 21.1227 18.1435 21.3146 18.2751C21.5121 18.4067 21.6601 18.6012 21.7589 18.8584C21.8631 19.1097 21.9152 19.4239 21.9152 19.8008C21.9152 20.0222 21.8658 20.2705 21.7671 20.5457C21.6739 20.8209 21.523 21.1291 21.3146 21.4701C21.1062 21.8052 20.832 22.1851 20.492 22.6099L16.6421 27.0255V29H25Z" fill="#DE1C24"/>
<path fill-rule="evenodd" clip-rule="evenodd" d="M8.37209 2.29458C8.37209 1.3741 7.6259 0.666565 6.70543 0.666565H6.66667C5.74619 0.666565 5 1.3741 5 2.29458V4H3.13953C1.40562 4 0 5.40562 0 7.13954V30.8605C0 32.5944 1.40562 34 3.13953 34H26.8605C28.5944 34 30 32.5944 30 30.8605V7.13954C30 5.40562 28.5944 4 26.8605 4H25V2.29458C25 1.3741 24.2538 0.666565 23.3333 0.666565H23.2946C22.3741 0.666565 21.6279 1.3741 21.6279 2.29458V4H8.37209V2.29458ZM3.37209 10.6279V7.37209H26.6279V10.6279H3.37209ZM3.37209 14V30.6279H26.6279V14H3.37209Z" fill="#DE1C24"/>
</svg>
