<svg width="18" height="18" viewBox="0 0 18 18" fill="none" xmlns="http://www.w3.org/2000/svg">
<path fill-rule="evenodd" clip-rule="evenodd" d="M5.66669 2.33341C5.66669 1.41294 6.41288 0.666748 7.33335 0.666748H15.6667C16.5872 0.666748 17.3334 1.41294 17.3334 2.33341V10.6667C17.3334 11.5872 16.5872 12.3334 15.6667 12.3334H12.3334V15.6667C12.3334 16.5872 11.5872 17.3334 10.6667 17.3334L2.33335 17.3334C1.41288 17.3334 0.666687 16.5872 0.666687 15.6667L0.666687 7.33341C0.666687 6.41294 1.41288 5.66675 2.33335 5.66675H5.66669V2.33341ZM7.33335 5.66675H10.6667C11.5872 5.66675 12.3334 6.41294 12.3334 7.33341V10.6667H15.6667L15.6667 2.33341H7.33335V5.66675ZM10.6667 11.4993V7.33341H2.33335V15.6667L10.6667 15.6667V11.5009C10.6667 11.5006 10.6667 11.5004 10.6667 11.5001C10.6667 11.4998 10.6667 11.4995 10.6667 11.4993Z" fill="#D8D8D8"/>
</svg>
