<svg width="38" height="28" viewBox="0 0 38 28" fill="none" xmlns="http://www.w3.org/2000/svg">
<path d="M7.17053 9.56643V8.47593H9.19853V7.59377H6.02795V12.3334H7.17053V10.4453H9.01298V9.56643H7.17053Z" fill="#DE1C24"/>
<path fill-rule="evenodd" clip-rule="evenodd" d="M11.539 7.59377H9.67379V12.3334H10.8164V10.6602H11.4316L12.2682 12.3334H13.4921V12.2845L12.5043 10.3725C12.6318 10.3111 12.7473 10.2399 12.8509 10.1589C13.0028 10.0395 13.1211 9.88869 13.2057 9.7064C13.2903 9.52411 13.3326 9.29733 13.3326 9.02606C13.3326 8.71356 13.2589 8.45097 13.1113 8.2383C12.9659 8.02563 12.7586 7.86504 12.4895 7.75653C12.2204 7.64802 11.9036 7.59377 11.539 7.59377ZM10.8164 9.77802H11.539C11.6844 9.77802 11.8049 9.75197 11.9004 9.69989C11.9958 9.64781 12.0675 9.57402 12.1152 9.47854C12.1651 9.38088 12.1901 9.26478 12.1901 9.13023C12.1901 8.99351 12.1651 8.87632 12.1152 8.77867C12.0653 8.68101 11.9915 8.60614 11.8938 8.55406C11.7984 8.50197 11.6801 8.47593 11.539 8.47593H10.8164V9.77802Z" fill="#DE1C24"/>
<path d="M17.2845 11.4544V12.3334H14.0227V7.59377H17.2942V8.47593H15.1653V9.47528H16.9589V10.3249H15.1653V11.4544H17.2845Z" fill="#DE1C24"/>
<path d="M21.0149 12.3334V11.4544H18.8958V10.3249H20.6894V9.47528H18.8958V8.47593H21.0247V7.59377H17.7532V12.3334H21.0149Z" fill="#DE1C24"/>
<path fill-rule="evenodd" clip-rule="evenodd" d="M30.6666 7.33335C31.7158 7.33335 32.7038 7.82733 33.3333 8.66669L36.6666 13.1111C37.0994 13.6881 37.3333 14.3899 37.3333 15.1111V20.6667C37.3333 21.5872 36.5871 22.3334 35.6666 22.3334H34C34 25.1 31.7666 27.3334 29 27.3334C26.2333 27.3334 24 25.1 24 22.3334H14C14 25.1 11.7666 27.3334 8.99996 27.3334C6.23329 27.3334 3.99996 25.1 3.99996 22.3334C2.15901 22.3334 0.666626 20.841 0.666626 19V4.00002C0.666626 2.16669 2.16663 0.666687 3.99996 0.666687H24C25.8409 0.666687 27.3333 2.15907 27.3333 4.00002V7.33335H30.6666ZM34.7666 14L31.5 9.83335H27.3333V14H34.7666ZM7.33329 22.3334C7.33329 23.25 8.08329 24 8.99996 24C9.91663 24 10.6666 23.25 10.6666 22.3334C10.6666 21.4167 9.91663 20.6667 8.99996 20.6667C8.08329 20.6667 7.33329 21.4167 7.33329 22.3334ZM8.99996 17.3334C10.4833 17.3334 11.7833 17.9834 12.7 19H24V4.00002H3.99996V19H5.29996C6.21663 17.9834 7.51663 17.3334 8.99996 17.3334ZM27.3333 22.3334C27.3333 23.25 28.0833 24 29 24C29.9166 24 30.6666 23.25 30.6666 22.3334C30.6666 21.4167 29.9166 20.6667 29 20.6667C28.0833 20.6667 27.3333 21.4167 27.3333 22.3334Z" fill="#DE1C24"/>
</svg>
