<svg width="197" height="32" viewBox="0 0 197 32" fill="none" xmlns="http://www.w3.org/2000/svg">
<path d="M0.885376 30.544V24.0109H3.22848C3.94393 24.0109 4.51331 24.1976 4.93662 24.5709C5.35993 24.9442 5.57159 25.4544 5.57159 26.1015C5.57159 26.7797 5.33608 27.3054 4.86508 27.6788C4.40003 28.0521 3.81575 28.2387 3.11222 28.2387H1.59188V30.544H0.885376ZM1.59188 27.5668H3.13905C3.65775 27.5668 4.07212 27.4361 4.38215 27.1748C4.69814 26.9072 4.85613 26.5526 4.85613 26.1108C4.85613 25.6566 4.7041 25.3082 4.40003 25.0655C4.10193 24.8167 3.69352 24.6922 3.17482 24.6922H1.59188V27.5668Z" fill="#9FA09C"/>
<path d="M7.03798 30.544V24.0109H11.5632V24.6829H7.74449V26.9135H11.1608V27.5854H7.74449V29.872H11.6079V30.544H7.03798Z" fill="#9FA09C"/>
<path d="M13.2081 30.544V24.0109H13.9146V29.872H16.9016V24.0109H17.6081V29.872H20.5951V24.0109H21.3016V30.544H13.2081Z" fill="#9FA09C"/>
<path d="M23.2471 30.544V24.0109H27.7723V24.6829H23.9536V26.9135H27.3699V27.5854H23.9536V29.872H27.817V30.544H23.2471Z" fill="#9FA09C"/>
<path d="M29.4172 30.544V24.0109H30.1237V26.9135H33.7367V24.0109H34.4432V30.544H33.7367V27.6041H30.1237V30.544H29.4172Z" fill="#9FA09C"/>
<path d="M36.3907 30.544V24.0109H37.0972V29.4334L40.8355 24.0109H41.5062V30.544H40.8086V25.1215L37.0793 30.544H36.3907Z" fill="#9FA09C"/>
<path d="M42.9419 30.544L44.9004 27.9214C44.3817 27.8219 43.9673 27.6072 43.6573 27.2774C43.3473 26.9415 43.1923 26.509 43.1923 25.9802C43.1923 25.4264 43.3503 24.9909 43.6663 24.6736C44.0896 24.2318 44.6977 24.0109 45.4907 24.0109H48.1647V30.544H47.4581V28.0427H45.6606L43.8004 30.544H42.9419ZM45.5354 27.4174H47.4581V24.6736H45.5354C45.0226 24.6736 44.6202 24.798 44.328 25.0469C44.0419 25.2895 43.8988 25.6193 43.8988 26.0362C43.8988 26.453 44.0508 26.789 44.3549 27.0441C44.6589 27.293 45.0524 27.4174 45.5354 27.4174Z" fill="#9FA09C"/>
<path d="M52.1749 31.9999V29.872H52.8188C53.4508 28.8205 53.7668 27.2463 53.7668 25.1495V24.0109H57.8627V29.872H58.6766L58.5692 31.9999H57.979V30.544H52.8993L52.7741 31.9999H52.1749ZM53.6147 29.872H57.1562V24.6829H54.4465V25.5322C54.4465 26.3908 54.3719 27.2183 54.2229 28.0147C54.0738 28.8112 53.8711 29.4302 53.6147 29.872Z" fill="#9FA09C"/>
<path d="M59.7757 30.6186C59.4955 30.6186 59.2242 30.5657 58.9619 30.46L59.105 29.8627C59.2362 29.9249 59.421 29.956 59.6595 29.956C59.7787 29.956 59.886 29.9373 59.9814 29.9C60.0768 29.8564 60.1901 29.7444 60.3213 29.564C60.4524 29.3774 60.5597 29.1254 60.6432 28.808C60.7267 28.4845 60.7982 28.0147 60.8579 27.3988C60.9234 26.7766 60.9562 26.0424 60.9562 25.1962V24.0109H65.0075V30.544H64.301V24.6829H61.6359V25.3922C61.6359 26.2757 61.6001 27.041 61.5286 27.6881C61.463 28.3352 61.3736 28.8454 61.2603 29.2187C61.153 29.5858 61.0129 29.8782 60.84 30.096C60.673 30.3138 60.5061 30.4569 60.3392 30.5253C60.1782 30.5875 59.9904 30.6186 59.7757 30.6186Z" fill="#9FA09C"/>
<path d="M66.4431 30.544L68.4017 27.9214C67.883 27.8219 67.4686 27.6072 67.1586 27.2774C66.8485 26.9415 66.6935 26.509 66.6935 25.9802C66.6935 25.4264 66.8515 24.9909 67.1675 24.6736C67.5908 24.2318 68.199 24.0109 68.9919 24.0109H71.6659V30.544H70.9594V28.0427H69.1618L67.3017 30.544H66.4431ZM69.0366 27.4174H70.9594V24.6736H69.0366C68.5239 24.6736 68.1215 24.798 67.8293 25.0469C67.5431 25.2895 67.4 25.6193 67.4 26.0362C67.4 26.453 67.5521 26.789 67.8561 27.0441C68.1602 27.293 68.5537 27.4174 69.0366 27.4174Z" fill="#9FA09C"/>
<path d="M75.9355 30.544L78.7884 23.9643H79.4502L82.303 30.544H81.5429L80.8095 28.8174H77.4022L76.6599 30.544H75.9355ZM77.6794 28.1547H80.5323L79.1103 24.8229L77.6794 28.1547Z" fill="#9FA09C"/>
<path d="M83.7164 30.544V24.0109H86.3815C87.1148 24.0109 87.6603 24.2038 88.0181 24.5896C88.2863 24.882 88.4205 25.2366 88.4205 25.6535C88.4205 26.3628 88.0896 26.8668 87.4278 27.1655C88.3221 27.4454 88.7693 27.9774 88.7693 28.7614C88.7693 29.3151 88.5636 29.7507 88.1522 30.068C87.7408 30.3853 87.1893 30.544 86.4977 30.544H83.7164ZM84.414 29.8813H86.5156C86.9926 29.8813 87.3682 29.7787 87.6424 29.5733C87.9167 29.3618 88.0538 29.0694 88.0538 28.6961C88.0538 28.3352 87.9107 28.0583 87.6246 27.8654C87.3443 27.6725 86.933 27.5761 86.3904 27.5761H84.414V29.8813ZM84.414 26.9228H86.2652C86.7004 26.9228 87.0492 26.8201 87.3115 26.6148C87.5739 26.4095 87.705 26.1171 87.705 25.7375C87.705 25.4077 87.5828 25.1495 87.3384 24.9629C87.0999 24.77 86.7601 24.6736 86.3189 24.6736H84.414V26.9228Z" fill="#9FA09C"/>
<path d="M92.0038 30.544V24.6829H89.9022V24.0109H94.8209V24.6829H92.7193V30.544H92.0038Z" fill="#9FA09C"/>
<path d="M101.532 29.6667C100.93 30.3262 100.164 30.656 99.2338 30.656C98.3037 30.656 97.5406 30.3262 96.9444 29.6667C96.3482 29.0071 96.0501 28.2107 96.0501 27.2774C96.0501 26.3504 96.3511 25.5571 96.9533 24.8975C97.5555 24.2318 98.3216 23.8989 99.2517 23.8989C100.182 23.8989 100.945 24.2287 101.541 24.8882C102.137 25.5477 102.435 26.3442 102.435 27.2774C102.435 28.2045 102.134 29.0009 101.532 29.6667ZM97.481 29.1907C97.952 29.7133 98.5422 29.9747 99.2517 29.9747C99.9612 29.9747 100.545 29.7165 101.005 29.2C101.47 28.6774 101.702 28.0365 101.702 27.2774C101.702 26.5246 101.467 25.8868 100.996 25.3642C100.531 24.8416 99.9433 24.5802 99.2338 24.5802C98.5243 24.5802 97.9371 24.8416 97.472 25.3642C97.0129 25.8806 96.7834 26.5184 96.7834 27.2774C96.7834 28.0303 97.0159 28.6681 97.481 29.1907Z" fill="#9FA09C"/>
<path d="M104.104 30.544V24.0109H108.594V24.6829H104.811V26.6895H106.662C107.366 26.6895 107.938 26.8512 108.379 27.1748C108.82 27.4921 109.041 27.965 109.041 28.5934C109.041 29.2218 108.832 29.704 108.415 30.04C108.004 30.376 107.443 30.544 106.734 30.544H104.104ZM104.811 29.872H106.68C107.783 29.872 108.334 29.4334 108.334 28.5561C108.334 28.1516 108.185 27.8499 107.887 27.6508C107.589 27.4454 107.175 27.3428 106.644 27.3428H104.811V29.872Z" fill="#9FA09C"/>
<path d="M110.615 30.544V24.0109H111.322V29.4334L115.06 24.0109H115.73V30.544H115.033V25.1215L111.304 30.544H110.615Z" fill="#9FA09C"/>
<path d="M119.751 30.656C118.749 30.656 117.879 30.3044 117.139 29.6013L117.56 29.088C118.192 29.7102 118.925 30.0213 119.76 30.0213C120.159 30.0213 120.502 29.9062 120.788 29.676C121.074 29.4396 121.217 29.1347 121.217 28.7614C121.217 28.357 121.062 28.0552 120.752 27.8561C120.442 27.657 120.034 27.5574 119.527 27.5574H118.839V26.9508H119.527C119.98 26.9508 120.347 26.8419 120.627 26.6241C120.913 26.4002 121.056 26.0984 121.056 25.7188C121.056 25.3829 120.922 25.106 120.654 24.8882C120.392 24.6642 120.055 24.5522 119.643 24.5522C118.94 24.5522 118.326 24.798 117.801 25.2895L117.39 24.7762C117.718 24.4838 118.057 24.266 118.409 24.1229C118.767 23.9798 119.184 23.9083 119.661 23.9083C120.281 23.9083 120.788 24.0731 121.182 24.4029C121.575 24.7327 121.772 25.1495 121.772 25.6535C121.772 26.3939 121.39 26.9072 120.627 27.1934C121.027 27.3179 121.346 27.5139 121.584 27.7814C121.823 28.049 121.942 28.3881 121.942 28.7987C121.942 29.3276 121.736 29.7693 121.325 30.124C120.919 30.4786 120.395 30.656 119.751 30.656Z" fill="#9FA09C"/>
<path d="M123.54 30.544V24.0109H124.247V26.9135H127.86V24.0109H128.566V30.544H127.86V27.6041H124.247V30.544H123.54Z" fill="#9FA09C"/>
<path d="M130.514 30.544V24.0109H135.039V24.6829H131.22V26.9135H134.637V27.5854H131.22V29.872H135.084V30.544H130.514Z" fill="#9FA09C"/>
<path d="M139.546 30.656C138.645 30.656 137.897 30.3324 137.301 29.6853C136.705 29.032 136.407 28.2294 136.407 27.2774C136.407 26.3379 136.708 25.5415 137.31 24.8882C137.912 24.2287 138.666 23.8989 139.573 23.8989C140.097 23.8989 140.544 23.9891 140.914 24.1696C141.284 24.3438 141.644 24.6051 141.996 24.9535L141.531 25.4762C140.929 24.8789 140.273 24.5802 139.564 24.5802C138.872 24.5802 138.294 24.8384 137.829 25.3549C137.37 25.8713 137.14 26.5121 137.14 27.2774C137.14 28.0365 137.373 28.6774 137.838 29.2C138.303 29.7165 138.878 29.9747 139.564 29.9747C139.969 29.9747 140.327 29.8969 140.637 29.7413C140.947 29.5858 141.263 29.3494 141.585 29.032L142.05 29.5453C141.698 29.9124 141.328 30.1893 140.941 30.376C140.553 30.5626 140.088 30.656 139.546 30.656Z" fill="#9FA09C"/>
<path d="M142.929 30.544L145.782 23.9643H146.443L149.296 30.544H148.536L147.803 28.8174H144.395L143.653 30.544H142.929ZM144.673 28.1547H147.526L146.104 24.8229L144.673 28.1547Z" fill="#9FA09C"/>
<path d="M20.2317 16.6759H17.5716L15.717 13.0202H4.49593L2.66009 16.6759H0L8.26127 0.273926H11.9142L20.2317 16.6759ZM14.6867 10.8697L10.4156 2.22887H9.85357L5.54498 10.8697H14.6867Z" fill="white"/>
<path d="M39.5642 11.9059C39.5642 15.0924 37.8969 16.6955 34.5625 16.6955H21.9551V0.273926H34.0192C35.5553 0.273926 36.7355 0.645366 37.5972 1.38825C38.5339 2.18978 39.0022 3.36275 39.0022 4.92671C39.0022 6.56886 38.4027 7.62454 37.2038 8.09372C37.9719 8.34787 38.5713 8.8366 38.9647 9.55994C39.3769 10.2246 39.5642 11.0066 39.5642 11.9059ZM36.6606 4.92671C36.6606 3.3041 35.7801 2.50257 34.0192 2.50257H24.3155V7.19445H34.0192C34.8809 7.19445 35.5179 7.03805 35.93 6.72526C36.417 6.39292 36.6606 5.78688 36.6606 4.92671ZM37.2226 11.9059C37.2226 11.0848 36.979 10.4397 36.492 9.97048C36.0049 9.50129 35.3493 9.26669 34.5625 9.26669H24.3155V14.4473H34.5625C36.3234 14.4473 37.2226 13.6067 37.2226 11.9059Z" fill="white"/>
<path d="M59.1964 12.1793C59.1964 14.1538 58.4845 15.4832 57.0608 16.1088C55.9368 16.6171 53.5765 16.8908 49.9797 16.8908C46.1394 16.8908 43.6667 16.4411 42.5802 15.5614C41.7185 14.8576 41.2689 13.3914 41.2689 11.1823H43.6105C43.6105 12.7072 43.9477 13.6651 44.6221 14.0756C45.259 14.4666 47.0386 14.6621 49.9797 14.6621C52.9583 14.6621 54.7754 14.5253 55.4685 14.2711C56.3864 13.9192 56.836 13.2155 56.836 12.1598C56.836 11.065 56.5175 10.3808 55.8994 10.068C55.3748 9.7943 53.5765 9.677 50.523 9.677C46.87 9.677 44.4347 9.22736 43.2358 8.30854C42.2804 7.5852 41.8121 6.33404 41.8121 4.57458C41.8121 2.65873 42.3741 1.40756 43.4981 0.821079C44.5659 0.273693 46.9075 0 50.5417 0C54.101 0 56.4239 0.430089 57.4729 1.30982C58.3347 2.0136 58.7655 3.40161 58.7655 5.43476H56.4801C56.4801 4.0663 56.1429 3.18657 55.4498 2.79558C54.8128 2.42414 53.1831 2.22864 50.5604 2.22864C48.3687 2.22864 47.0012 2.26774 46.4766 2.34594C44.9405 2.56098 44.1725 3.32341 44.1725 4.59413C44.1725 5.6889 44.6033 6.45133 45.4463 6.88142C46.2144 7.29196 48.2001 7.48746 51.4034 7.50701C54.588 7.52656 56.6112 7.7416 57.4542 8.15214C58.5969 8.73862 59.1964 10.0875 59.1964 12.1793Z" fill="white"/>
<path d="M76.9928 16.6759H61.9314V0.273926H76.9928V2.50257H64.2918V7.25309H76.5244V9.48174H64.2918V14.4669H76.9928V16.6759Z" fill="#009A93"/>
<path d="M94.2459 16.6759H79.8401V0.273926H82.1818V14.4669H94.2459V16.6759Z" fill="#009A93"/>
<path d="M113.784 10.5176C113.784 12.7071 113.41 14.2711 112.642 15.2681C111.967 16.1283 110.9 16.6561 109.401 16.8711C108.708 16.9493 107.059 16.9884 104.474 16.9884C101.739 16.9884 99.8471 16.832 98.7606 16.5388C97.393 16.1478 96.4564 15.3658 95.9319 14.1733C95.4073 12.9808 95.1638 11.0258 95.1638 8.32801C95.1638 5.70838 95.4448 3.83163 95.9881 2.69776C96.5313 1.56389 97.5054 0.821006 98.8917 0.469115C99.922 0.195422 101.795 0.078125 104.474 0.078125C107.247 0.078125 108.783 0.0976745 109.064 0.117224C110.619 0.25407 111.743 0.684159 112.454 1.38794C113.335 2.24812 113.784 3.67523 113.784 5.64973H111.462C111.462 4.04667 111.068 3.04965 110.3 2.71731C109.663 2.44361 107.734 2.30677 104.493 2.30677C102.076 2.30677 100.578 2.36542 99.9969 2.50226C98.9854 2.69776 98.3297 3.20604 98.0112 4.04667C97.6928 4.82865 97.5429 6.33396 97.5429 8.54306C97.5429 10.7521 97.6928 12.2575 97.9925 13.0394C98.311 13.8996 98.9854 14.4079 99.9969 14.6034C102.603 15.1298 105.518 14.9638 108.165 14.8575C109.232 14.7989 110.113 14.4861 110.6 13.9387C111.181 13.2936 111.48 12.1793 111.48 10.5567H103.893V8.28891H113.803L113.784 10.5176Z" fill="white"/>
<path d="M135.346 16.6759H132.986V12.6488C132.986 12.0427 132.705 11.5735 132.124 11.2021C131.637 10.8893 131.075 10.7329 130.457 10.7329H119.404V16.6759H117.044V0.273926H131.15C132.555 0.273926 133.623 0.801762 134.353 1.85743C135.009 2.77626 135.346 4.00788 135.346 5.53274C135.346 6.88165 135.14 7.89823 134.728 8.58246C134.428 9.05165 133.96 9.42309 133.323 9.71633C134.672 10.3224 135.346 11.2998 135.346 12.6683V16.6759ZM132.986 5.51319C132.986 4.43797 132.78 3.67554 132.349 3.20635C131.918 2.73716 131.225 2.50257 130.232 2.50257H119.404V8.52381H130.232C131.225 8.52381 131.937 8.26967 132.386 7.78093C132.798 7.31174 132.986 6.54931 132.986 5.51319Z" fill="white"/>
<path d="M157.002 8.50397C157.002 11.1627 156.889 12.9026 156.646 13.7237C156.196 15.2681 154.866 16.2456 152.618 16.6561C151.738 16.8321 149.958 16.9103 147.317 16.9103C144.713 16.9103 142.933 16.8321 142.015 16.6561C139.767 16.226 138.418 15.2485 137.969 13.7432C137.725 12.9417 137.613 11.1823 137.613 8.50397C137.613 5.84524 137.725 4.10534 137.969 3.26471C138.418 1.7203 139.748 0.742826 141.996 0.332287C142.914 0.156341 144.694 0.0585938 147.317 0.0585938C149.939 0.0585938 151.719 0.136792 152.618 0.312737C154.847 0.742826 156.196 1.7203 156.646 3.24516C156.889 4.06624 157.002 5.80614 157.002 8.50397ZM154.66 8.50397C154.66 5.4738 154.36 3.6948 153.742 3.16696C153.068 2.56093 150.932 2.26769 147.317 2.26769C144.731 2.26769 143.177 2.30679 142.652 2.40453C141.566 2.58048 140.854 3.06922 140.498 3.89029C140.142 4.71137 139.973 6.25578 139.973 8.48443C139.973 10.6935 140.161 12.1988 140.516 13.0199C140.891 13.841 141.603 14.3493 142.69 14.5252C143.233 14.623 144.769 14.6621 147.298 14.6621C149.864 14.6621 151.4 14.623 151.925 14.5448C153.011 14.3688 153.742 13.8605 154.098 13.0395C154.473 12.2575 154.66 10.7326 154.66 8.50397Z" fill="white"/>
<path d="M176.952 11.9254C176.952 13.7631 176.521 15.0729 175.678 15.8549C175.004 16.5 173.936 16.8519 172.456 16.9496H168.129H163.802C162.34 16.8714 161.273 16.5 160.58 15.8744C159.737 15.0924 159.306 13.7826 159.306 11.9254V0.273926H161.666V11.9254C161.666 13.0202 162.041 13.7826 162.79 14.2323C163.352 14.5842 164.195 14.7601 165.338 14.7796C167.194 14.7796 169.044 14.757 170.901 14.7796C172.025 14.7601 172.868 14.5842 173.449 14.2323C174.198 13.7826 174.573 13.0202 174.573 11.9254V0.273926H176.933L176.952 11.9254Z" fill="white"/>
<path d="M196.978 5.51319C196.978 7.11625 196.603 8.36742 195.873 9.26669C195.086 10.2246 193.943 10.6938 192.407 10.6938H182.029V16.6759H179.669V0.273926H192.501C195.479 0.273926 196.978 2.01383 196.978 5.51319ZM194.617 5.51319C194.617 3.49959 193.868 2.50257 192.388 2.50257H182.029V8.48471H192.407C193.887 8.48471 194.617 7.48769 194.617 5.51319Z" fill="white"/>
</svg>
