<svg width="197" height="32" viewBox="0 0 197 32" fill="none" xmlns="http://www.w3.org/2000/svg">
<path d="M0.885376 30.5441V24.011H3.22848C3.94393 24.011 4.51331 24.1977 4.93662 24.571C5.35993 24.9443 5.57159 25.4545 5.57159 26.1016C5.57159 26.7798 5.33608 27.3055 4.86508 27.6789C4.40003 28.0522 3.81575 28.2388 3.11222 28.2388H1.59188V30.5441H0.885376ZM1.59188 27.5669H3.13905C3.65775 27.5669 4.07212 27.4362 4.38215 27.1749C4.69814 26.9073 4.85613 26.5527 4.85613 26.1109C4.85613 25.6567 4.7041 25.3083 4.40003 25.0656C4.10193 24.8168 3.69352 24.6923 3.17482 24.6923H1.59188V27.5669Z" fill="#9FA09C"/>
<path d="M7.03798 30.5441V24.011H11.5632V24.683H7.74449V26.9136H11.1608V27.5855H7.74449V29.8721H11.6079V30.5441H7.03798Z" fill="#9FA09C"/>
<path d="M13.2081 30.5441V24.011H13.9146V29.8721H16.9016V24.011H17.6081V29.8721H20.5951V24.011H21.3016V30.5441H13.2081Z" fill="#9FA09C"/>
<path d="M23.2471 30.5441V24.011H27.7723V24.683H23.9536V26.9136H27.3699V27.5855H23.9536V29.8721H27.817V30.5441H23.2471Z" fill="#9FA09C"/>
<path d="M29.4172 30.5441V24.011H30.1237V26.9136H33.7367V24.011H34.4432V30.5441H33.7367V27.6042H30.1237V30.5441H29.4172Z" fill="#9FA09C"/>
<path d="M36.3907 30.5441V24.011H37.0972V29.4334L40.8355 24.011H41.5062V30.5441H40.8086V25.1216L37.0793 30.5441H36.3907Z" fill="#9FA09C"/>
<path d="M42.9419 30.5441L44.9004 27.9215C44.3817 27.822 43.9673 27.6073 43.6573 27.2775C43.3473 26.9416 43.1923 26.5091 43.1923 25.9803C43.1923 25.4265 43.3503 24.991 43.6663 24.6737C44.0896 24.2319 44.6977 24.011 45.4907 24.011H48.1647V30.5441H47.4581V28.0428H45.6606L43.8004 30.5441H42.9419ZM45.5354 27.4175H47.4581V24.6737H45.5354C45.0226 24.6737 44.6202 24.7981 44.328 25.047C44.0419 25.2896 43.8988 25.6194 43.8988 26.0363C43.8988 26.4531 44.0508 26.7891 44.3549 27.0442C44.6589 27.2931 45.0524 27.4175 45.5354 27.4175Z" fill="#9FA09C"/>
<path d="M52.1749 32V29.8721H52.8188C53.4508 28.8206 53.7668 27.2464 53.7668 25.1496V24.011H57.8627V29.8721H58.6766L58.5692 32H57.979V30.5441H52.8993L52.7741 32H52.1749ZM53.6147 29.8721H57.1562V24.683H54.4465V25.5323C54.4465 26.3909 54.3719 27.2184 54.2229 28.0148C54.0738 28.8112 53.8711 29.4303 53.6147 29.8721Z" fill="#9FA09C"/>
<path d="M59.7757 30.6187C59.4955 30.6187 59.2242 30.5658 58.9619 30.4601L59.105 29.8628C59.2362 29.925 59.421 29.9561 59.6595 29.9561C59.7787 29.9561 59.886 29.9374 59.9814 29.9001C60.0768 29.8565 60.1901 29.7445 60.3213 29.5641C60.4524 29.3774 60.5597 29.1255 60.6432 28.8081C60.7267 28.4846 60.7982 28.0148 60.8579 27.3989C60.9234 26.7767 60.9562 26.0425 60.9562 25.1963V24.011H65.0075V30.5441H64.301V24.683H61.6359V25.3923C61.6359 26.2758 61.6001 27.0411 61.5286 27.6882C61.463 28.3353 61.3736 28.8455 61.2603 29.2188C61.153 29.5859 61.0129 29.8783 60.84 30.0961C60.673 30.3138 60.5061 30.457 60.3392 30.5254C60.1782 30.5876 59.9904 30.6187 59.7757 30.6187Z" fill="#9FA09C"/>
<path d="M66.4431 30.5441L68.4017 27.9215C67.883 27.822 67.4686 27.6073 67.1586 27.2775C66.8485 26.9416 66.6935 26.5091 66.6935 25.9803C66.6935 25.4265 66.8515 24.991 67.1675 24.6737C67.5908 24.2319 68.199 24.011 68.9919 24.011H71.6659V30.5441H70.9594V28.0428H69.1618L67.3017 30.5441H66.4431ZM69.0366 27.4175H70.9594V24.6737H69.0366C68.5239 24.6737 68.1215 24.7981 67.8293 25.047C67.5431 25.2896 67.4 25.6194 67.4 26.0363C67.4 26.4531 67.5521 26.7891 67.8561 27.0442C68.1602 27.2931 68.5537 27.4175 69.0366 27.4175Z" fill="#9FA09C"/>
<path d="M75.9355 30.5441L78.7884 23.9643H79.4502L82.303 30.5441H81.5429L80.8095 28.8175H77.4022L76.6599 30.5441H75.9355ZM77.6794 28.1548H80.5323L79.1103 24.823L77.6794 28.1548Z" fill="#9FA09C"/>
<path d="M83.7164 30.5441V24.011H86.3815C87.1148 24.011 87.6603 24.2039 88.0181 24.5897C88.2863 24.8821 88.4205 25.2367 88.4205 25.6536C88.4205 26.3629 88.0896 26.8669 87.4278 27.1655C88.3221 27.4455 88.7693 27.9775 88.7693 28.7615C88.7693 29.3152 88.5636 29.7508 88.1522 30.0681C87.7408 30.3854 87.1893 30.5441 86.4977 30.5441H83.7164ZM84.414 29.8814H86.5156C86.9926 29.8814 87.3682 29.7788 87.6424 29.5734C87.9167 29.3619 88.0538 29.0695 88.0538 28.6961C88.0538 28.3353 87.9107 28.0584 87.6246 27.8655C87.3443 27.6726 86.933 27.5762 86.3904 27.5762H84.414V29.8814ZM84.414 26.9229H86.2652C86.7004 26.9229 87.0492 26.8202 87.3115 26.6149C87.5739 26.4096 87.705 26.1171 87.705 25.7376C87.705 25.4078 87.5828 25.1496 87.3384 24.963C87.0999 24.7701 86.7601 24.6737 86.3189 24.6737H84.414V26.9229Z" fill="#9FA09C"/>
<path d="M92.0038 30.5441V24.683H89.9022V24.011H94.8209V24.683H92.7193V30.5441H92.0038Z" fill="#9FA09C"/>
<path d="M101.532 29.6668C100.93 30.3263 100.164 30.6561 99.2338 30.6561C98.3037 30.6561 97.5406 30.3263 96.9444 29.6668C96.3482 29.0072 96.0501 28.2108 96.0501 27.2775C96.0501 26.3505 96.3511 25.5572 96.9533 24.8976C97.5555 24.2319 98.3216 23.899 99.2517 23.899C100.182 23.899 100.945 24.2288 101.541 24.8883C102.137 25.5478 102.435 26.3442 102.435 27.2775C102.435 28.2046 102.134 29.001 101.532 29.6668ZM97.481 29.1908C97.952 29.7134 98.5422 29.9748 99.2517 29.9748C99.9612 29.9748 100.545 29.7165 101.005 29.2001C101.47 28.6775 101.702 28.0366 101.702 27.2775C101.702 26.5247 101.467 25.8869 100.996 25.3643C100.531 24.8416 99.9433 24.5803 99.2338 24.5803C98.5243 24.5803 97.9371 24.8416 97.472 25.3643C97.0129 25.8807 96.7834 26.5185 96.7834 27.2775C96.7834 28.0304 97.0159 28.6681 97.481 29.1908Z" fill="#9FA09C"/>
<path d="M104.104 30.5441V24.011H108.594V24.683H104.811V26.6896H106.662C107.366 26.6896 107.938 26.8513 108.379 27.1749C108.82 27.4922 109.041 27.9651 109.041 28.5935C109.041 29.2219 108.832 29.7041 108.415 30.0401C108.004 30.3761 107.443 30.5441 106.734 30.5441H104.104ZM104.811 29.8721H106.68C107.783 29.8721 108.334 29.4334 108.334 28.5561C108.334 28.1517 108.185 27.85 107.887 27.6509C107.589 27.4455 107.175 27.3429 106.644 27.3429H104.811V29.8721Z" fill="#9FA09C"/>
<path d="M110.615 30.5441V24.011H111.322V29.4334L115.06 24.011H115.73V30.5441H115.033V25.1216L111.304 30.5441H110.615Z" fill="#9FA09C"/>
<path d="M119.751 30.6561C118.749 30.6561 117.879 30.3045 117.139 29.6014L117.56 29.0881C118.192 29.7103 118.925 30.0214 119.76 30.0214C120.159 30.0214 120.502 29.9063 120.788 29.6761C121.074 29.4397 121.217 29.1348 121.217 28.7615C121.217 28.357 121.062 28.0553 120.752 27.8562C120.442 27.6571 120.034 27.5575 119.527 27.5575H118.839V26.9509H119.527C119.98 26.9509 120.347 26.842 120.627 26.6242C120.913 26.4002 121.056 26.0985 121.056 25.7189C121.056 25.383 120.922 25.1061 120.654 24.8883C120.392 24.6643 120.055 24.5523 119.643 24.5523C118.94 24.5523 118.326 24.7981 117.801 25.2896L117.39 24.7763C117.718 24.4839 118.057 24.2661 118.409 24.123C118.767 23.9799 119.184 23.9084 119.661 23.9084C120.281 23.9084 120.788 24.0732 121.182 24.403C121.575 24.7328 121.772 25.1496 121.772 25.6536C121.772 26.394 121.39 26.9073 120.627 27.1935C121.027 27.318 121.346 27.514 121.584 27.7815C121.823 28.0491 121.942 28.3882 121.942 28.7988C121.942 29.3277 121.736 29.7694 121.325 30.1241C120.919 30.4787 120.395 30.6561 119.751 30.6561Z" fill="#9FA09C"/>
<path d="M123.54 30.5441V24.011H124.247V26.9136H127.86V24.011H128.566V30.5441H127.86V27.6042H124.247V30.5441H123.54Z" fill="#9FA09C"/>
<path d="M130.514 30.5441V24.011H135.039V24.683H131.22V26.9136H134.637V27.5855H131.22V29.8721H135.084V30.5441H130.514Z" fill="#9FA09C"/>
<path d="M139.546 30.6561C138.645 30.6561 137.897 30.3325 137.301 29.6854C136.705 29.0321 136.407 28.2295 136.407 27.2775C136.407 26.338 136.708 25.5416 137.31 24.8883C137.912 24.2288 138.666 23.899 139.573 23.899C140.097 23.899 140.544 23.9892 140.914 24.1697C141.284 24.3439 141.644 24.6052 141.996 24.9536L141.531 25.4763C140.929 24.879 140.273 24.5803 139.564 24.5803C138.872 24.5803 138.294 24.8385 137.829 25.355C137.37 25.8714 137.14 26.5122 137.14 27.2775C137.14 28.0366 137.373 28.6775 137.838 29.2001C138.303 29.7165 138.878 29.9748 139.564 29.9748C139.969 29.9748 140.327 29.897 140.637 29.7414C140.947 29.5859 141.263 29.3494 141.585 29.0321L142.05 29.5454C141.698 29.9125 141.328 30.1894 140.941 30.3761C140.553 30.5627 140.088 30.6561 139.546 30.6561Z" fill="#9FA09C"/>
<path d="M142.929 30.5441L145.782 23.9643H146.443L149.296 30.5441H148.536L147.803 28.8175H144.395L143.653 30.5441H142.929ZM144.673 28.1548H147.526L146.104 24.823L144.673 28.1548Z" fill="#9FA09C"/>
<path d="M20.2317 16.6757H17.5716L15.717 13.02H4.49593L2.66009 16.6757H0L8.26127 0.273693H11.9142L20.2317 16.6757ZM14.6867 10.8695L10.4156 2.22864H9.85357L5.54498 10.8695H14.6867Z" fill="black"/>
<path d="M39.5642 11.9056C39.5642 15.0922 37.8969 16.6953 34.5625 16.6953H21.9551V0.273693H34.0192C35.5553 0.273693 36.7355 0.645133 37.5972 1.38801C38.5339 2.18954 39.0022 3.36251 39.0022 4.92647C39.0022 6.56863 38.4027 7.6243 37.2038 8.09349C37.9719 8.34763 38.5713 8.83637 38.9647 9.5597C39.3769 10.2244 39.5642 11.0064 39.5642 11.9056ZM36.6606 4.92647C36.6606 3.30386 35.7801 2.50234 34.0192 2.50234H24.3155V7.19421H34.0192C34.8809 7.19421 35.5179 7.03782 35.93 6.72503C36.417 6.39268 36.6606 5.78665 36.6606 4.92647ZM37.2226 11.9056C37.2226 11.0846 36.979 10.4394 36.492 9.97024C36.0049 9.50105 35.3493 9.26646 34.5625 9.26646H24.3155V14.4471H34.5625C36.3234 14.4471 37.2226 13.6064 37.2226 11.9056Z" fill="black"/>
<path d="M59.1964 12.1793C59.1964 14.1538 58.4845 15.4832 57.0608 16.1088C55.9368 16.6171 53.5765 16.8908 49.9797 16.8908C46.1394 16.8908 43.6667 16.4411 42.5802 15.5614C41.7185 14.8576 41.2689 13.3914 41.2689 11.1823H43.6105C43.6105 12.7072 43.9477 13.6651 44.6221 14.0756C45.259 14.4666 47.0386 14.6621 49.9797 14.6621C52.9583 14.6621 54.7754 14.5253 55.4685 14.2711C56.3864 13.9192 56.836 13.2155 56.836 12.1598C56.836 11.065 56.5175 10.3808 55.8994 10.068C55.3748 9.7943 53.5765 9.677 50.523 9.677C46.87 9.677 44.4347 9.22736 43.2358 8.30854C42.2804 7.5852 41.8121 6.33404 41.8121 4.57458C41.8121 2.65873 42.3741 1.40756 43.4981 0.821079C44.5659 0.273693 46.9075 0 50.5417 0C54.101 0 56.4239 0.430089 57.4729 1.30982C58.3347 2.0136 58.7655 3.40161 58.7655 5.43476H56.4801C56.4801 4.0663 56.1429 3.18657 55.4498 2.79558C54.8128 2.42414 53.1831 2.22864 50.5604 2.22864C48.3687 2.22864 47.0012 2.26774 46.4766 2.34594C44.9405 2.56098 44.1725 3.32341 44.1725 4.59413C44.1725 5.6889 44.6033 6.45133 45.4463 6.88142C46.2144 7.29196 48.2001 7.48746 51.4034 7.50701C54.588 7.52656 56.6112 7.7416 57.4542 8.15214C58.5969 8.73862 59.1964 10.0875 59.1964 12.1793Z" fill="black"/>
<path d="M76.9928 16.6757H61.9314V0.273693H76.9928V2.50234H64.2918V7.25286H76.5244V9.4815H64.2918V14.4666H76.9928V16.6757Z" fill="#009A93"/>
<path d="M94.2459 16.6757H79.8401V0.273693H82.1818V14.4666H94.2459V16.6757Z" fill="#009A93"/>
<path d="M113.784 10.5176C113.784 12.7072 113.41 14.2711 112.642 15.2682C111.967 16.1283 110.9 16.6562 109.401 16.8712C108.708 16.9494 107.059 16.9885 104.474 16.9885C101.739 16.9885 99.8471 16.8321 98.7606 16.5389C97.393 16.1479 96.4564 15.3659 95.9319 14.1734C95.4073 12.9809 95.1638 11.0259 95.1638 8.32808C95.1638 5.70845 95.4448 3.8317 95.9881 2.69783C96.5313 1.56396 97.5054 0.821078 98.8917 0.469187C99.922 0.195494 101.795 0.0781975 104.474 0.0781975C107.247 0.0781975 108.783 0.097747 109.064 0.117296C110.619 0.254143 111.743 0.684232 112.454 1.38801C113.335 2.24819 113.784 3.6753 113.784 5.6498H111.462C111.462 4.04674 111.068 3.04972 110.3 2.71738C109.663 2.44369 107.734 2.30684 104.493 2.30684C102.076 2.30684 100.578 2.36549 99.9969 2.50233C98.9854 2.69783 98.3297 3.20612 98.0112 4.04675C97.6928 4.82872 97.5429 6.33403 97.5429 8.54313C97.5429 10.7522 97.6928 12.2575 97.9925 13.0395C98.311 13.8997 98.9854 14.408 99.9969 14.6035C102.603 15.1299 105.518 14.9639 108.165 14.8576C109.232 14.799 110.113 14.4862 110.6 13.9388C111.181 13.2937 111.48 12.1793 111.48 10.5567H103.893V8.28899H113.803L113.784 10.5176Z" fill="black"/>
<path d="M135.346 16.6757H132.986V12.6485C132.986 12.0425 132.705 11.5733 132.124 11.2019C131.637 10.8891 131.075 10.7327 130.457 10.7327H119.404V16.6757H117.044V0.273693H131.15C132.555 0.273693 133.623 0.801529 134.353 1.8572C135.009 2.77603 135.346 4.00765 135.346 5.53251C135.346 6.88142 135.14 7.89799 134.728 8.58223C134.428 9.05141 133.96 9.42285 133.323 9.7161C134.672 10.3221 135.346 11.2996 135.346 12.6681V16.6757ZM132.986 5.51296C132.986 4.43774 132.78 3.6753 132.349 3.20612C131.918 2.73693 131.225 2.50234 130.232 2.50234H119.404V8.52358H130.232C131.225 8.52358 131.937 8.26943 132.386 7.7807C132.798 7.31151 132.986 6.54908 132.986 5.51296Z" fill="black"/>
<path d="M157.002 8.50403C157.002 11.1628 156.889 12.9027 156.646 13.7237C156.196 15.2682 154.866 16.2456 152.618 16.6562C151.738 16.8321 149.958 16.9103 147.317 16.9103C144.713 16.9103 142.933 16.8321 142.015 16.6562C139.767 16.2261 138.418 15.2486 137.969 13.7433C137.725 12.9418 137.613 11.1823 137.613 8.50403C137.613 5.8453 137.725 4.10539 137.969 3.26476C138.418 1.72035 139.748 0.742879 141.996 0.33234C142.914 0.156395 144.694 0.0586472 147.317 0.0586472C149.939 0.0586472 151.719 0.136845 152.618 0.312791C154.847 0.742879 156.196 1.72035 156.646 3.24521C156.889 4.06629 157.002 5.8062 157.002 8.50403ZM154.66 8.50403C154.66 5.47386 154.36 3.69485 153.742 3.16702C153.068 2.56098 150.932 2.26774 147.317 2.26774C144.731 2.26774 143.177 2.30684 142.652 2.40459C141.566 2.58053 140.854 3.06927 140.498 3.89035C140.142 4.71143 139.973 6.25584 139.973 8.48448C139.973 10.6936 140.161 12.1989 140.516 13.02C140.891 13.841 141.603 14.3493 142.69 14.5253C143.233 14.623 144.769 14.6621 147.298 14.6621C149.864 14.6621 151.4 14.623 151.925 14.5448C153.011 14.3689 153.742 13.8606 154.098 13.0395C154.473 12.2575 154.66 10.7327 154.66 8.50403Z" fill="black"/>
<path d="M176.952 11.9252C176.952 13.7628 176.521 15.0727 175.678 15.8546C175.004 16.4998 173.936 16.8517 172.456 16.9494H168.129H163.802C162.34 16.8712 161.273 16.4998 160.58 15.8742C159.737 15.0922 159.306 13.7824 159.306 11.9252V0.273693H161.666V11.9252C161.666 13.02 162.041 13.7824 162.79 14.232C163.352 14.5839 164.195 14.7599 165.338 14.7794C167.194 14.7794 169.044 14.7568 170.901 14.7794C172.025 14.7599 172.868 14.5839 173.449 14.232C174.198 13.7824 174.573 13.02 174.573 11.9252V0.273693H176.933L176.952 11.9252Z" fill="black"/>
<path d="M196.978 5.51296C196.978 7.11602 196.603 8.36718 195.873 9.26646C195.086 10.2244 193.943 10.6936 192.407 10.6936H182.029V16.6757H179.669V0.273693H192.501C195.479 0.273693 196.978 2.0136 196.978 5.51296ZM194.617 5.51296C194.617 3.49936 193.868 2.50234 192.388 2.50234H182.029V8.48448H192.407C193.887 8.48448 194.617 7.48746 194.617 5.51296Z" fill="black"/>
</svg>
