<svg width="125" height="32" viewBox="0 0 125 32" fill="none" xmlns="http://www.w3.org/2000/svg">
<path fill-rule="evenodd" clip-rule="evenodd" d="M74.9669 9.7627V32H99.0879V25.4915H82.5555V9.7627H74.9669Z" fill="#DE1C24"/>
<path fill-rule="evenodd" clip-rule="evenodd" d="M35.1266 9.7627V27.1186C35.1266 29.5593 37.8368 31.7288 40.276 31.7288H53.8271C56.2663 31.7288 58.9766 29.8305 58.9766 27.3898V9.7627H51.659V24.1356C51.659 24.6779 51.3879 25.4915 50.5749 25.4915H44.6124C44.0703 25.4915 43.2573 24.6779 43.2573 24.1356V9.7627H35.1266Z" fill="#DE1C24"/>
<path fill-rule="evenodd" clip-rule="evenodd" d="M100.985 9.7627V27.1186C100.985 29.5593 103.695 31.7288 106.135 31.7288H119.686C122.125 31.7288 124.835 29.8305 124.835 27.3898V9.7627H117.517V24.1356C117.517 24.6779 117.246 25.4915 116.433 25.4915H110.471C109.929 25.4915 109.116 24.6779 109.116 24.1356V9.7627H100.985Z" fill="#DE1C24"/>
<path fill-rule="evenodd" clip-rule="evenodd" d="M16.155 21.9659L21.8465 10.0337H31.0613V31.9998H23.7437V20.61L18.5942 31.9998H13.7158L8.56641 20.61V31.9998H0.977783V10.0337H10.4636L16.155 21.9659Z" fill="#DE1C24"/>
<path fill-rule="evenodd" clip-rule="evenodd" d="M0.977783 7.32203V0H124.564V7.32203H70.6305V32H63.3129V7.32203H0.977783Z" fill="#DE1C24"/>
</svg>
