<svg width="32" height="32" viewBox="0 0 32 32" fill="none" xmlns="http://www.w3.org/2000/svg">
<path d="M23.686 9.99999C24.6172 9.99999 25.3721 9.24512 25.3721 8.31394C25.3721 7.38276 24.6172 6.62789 23.686 6.62789C22.7548 6.62789 22 7.38276 22 8.31394C22 9.24512 22.7548 9.99999 23.686 9.99999Z" fill="#DE1C24"/>
<path fill-rule="evenodd" clip-rule="evenodd" d="M1.16656 16.1047C-0.0595062 17.3308 -0.0595075 19.3187 1.16656 20.5447L11.4561 30.9116C12.6789 32.1343 14.6601 32.1382 15.8875 30.9202L31.9999 14.9999V-6.10352e-05H16.9999L1.16656 16.1047ZM18.6666 3.33327L3.71543 18.3247L13.6666 28.3333L28.6666 13.3333V3.33327H18.6666Z" fill="#DE1C24"/>
</svg>
