<svg width="30" height="30" viewBox="0 0 30 30" fill="none" xmlns="http://www.w3.org/2000/svg">
<path d="M15 11.6667C14.0795 11.6667 13.3333 12.4129 13.3333 13.3333C13.3333 14.2538 14.0795 15 15 15H21.6667C22.5871 15 23.3333 14.2538 23.3333 13.3333C23.3333 12.4129 22.5871 11.6667 21.6667 11.6667H15Z" fill="#DE1C24"/>
<path d="M13.3333 8.33333C13.3333 7.41286 14.0795 6.66667 15 6.66667H21.6667C22.5871 6.66667 23.3333 7.41286 23.3333 8.33333C23.3333 9.25381 22.5871 10 21.6667 10H15C14.0795 10 13.3333 9.25381 13.3333 8.33333Z" fill="#DE1C24"/>
<path fill-rule="evenodd" clip-rule="evenodd" d="M3.33333 0C1.49238 0 0 1.49238 0 3.33333V26.6667C0 28.5076 1.49238 30 3.33333 30H26.6667C28.5076 30 30 28.5076 30 26.6667V3.33333C30 1.49238 28.5076 0 26.6667 0H3.33333ZM6.66667 3.33333H3.33333V26.6667H6.66667L6.66667 3.33333ZM10 26.6667L10 3.33333H26.6667V26.6667H10Z" fill="#DE1C24"/>
</svg>
