<svg width="20" height="18" viewBox="0 0 20 18" fill="none" xmlns="http://www.w3.org/2000/svg">
<path fill-rule="evenodd" clip-rule="evenodd" d="M10 0C14.74 0 19 3.73 19 9.22C19.59 9.53 20 10.14 20 10.84V13.14C20 13.86 19.59 14.47 19 14.78V16C19 17.1 18.1 18 17 18H10C9.44772 18 9 17.5523 9 17C9 16.4477 9.44772 16 10 16H17V8.9C17 5.03 13.87 1.9 10 1.9C6.13 1.9 3 5.03 3 8.9V14C3 14.5523 2.55228 15 2 15C0.9 15 0 14.1 0 13V11C0 10.26 0.4 9.62 1 9.28C1 3.65 5.31 0 10 0ZM8 10C8 10.5523 7.55228 11 7 11C6.44772 11 6 10.5523 6 10C6 9.44771 6.44772 9 7 9C7.55228 9 8 9.44771 8 10ZM13 11C13.5523 11 14 10.5523 14 10C14 9.44771 13.5523 9 13 9C12.4477 9 12 9.44771 12 10C12 10.5523 12.4477 11 13 11ZM10.05 3C13.04 3 15.52 5.18 16 8.03C12.88 8 10.19 6.19 8.88 3.56C8.35 6.24 6.49 8.44 4.02 9.45C3.76 5.51 7.02 3 10.05 3Z" fill="#DE1C24"/>
</svg>
